<?xml version="1.0" encoding="UTF-8" standalone="no"?>
<!-- Created with Inkscape (http://www.inkscape.org/) -->

<svg
   xmlns:dc="http://purl.org/dc/elements/1.1/"
   xmlns:cc="http://creativecommons.org/ns#"
   xmlns:rdf="http://www.w3.org/1999/02/22-rdf-syntax-ns#"
   xmlns:svg="http://www.w3.org/2000/svg"
   xmlns="http://www.w3.org/2000/svg"
   xmlns:sodipodi="http://sodipodi.sourceforge.net/DTD/sodipodi-0.dtd"
   xmlns:inkscape="http://www.inkscape.org/namespaces/inkscape"
   width="210mm"
   height="297mm"
   id="svg6977"
   version="1.1"
   inkscape:version="0.48.1 "
   sodipodi:docname="pattern_remove_object.svg"
   inkscape:export-filename="E:\Workspace\Bachelorarbeit\source\images\pattern_remove_object.png"
   inkscape:export-xdpi="300"
   inkscape:export-ydpi="300">
  <defs
     id="defs6979">
    <clipPath
       clipPathUnits="userSpaceOnUse"
       id="clipPath237">
      <path
         inkscape:connector-curvature="0"
         d="m 483,369 10,0 0,9 -10,0 0,-9 z"
         id="path722" />
    </clipPath>
    <clipPath
       clipPathUnits="userSpaceOnUse"
       id="clipPath6997">
      <path
         inkscape:connector-curvature="0"
         d="m 483,369 10,0 0,9 -10,0 0,-9 z"
         id="path6999" />
    </clipPath>
    <clipPath
       clipPathUnits="userSpaceOnUse"
       id="clipPath236">
      <path
         inkscape:connector-curvature="0"
         d="m 486,349 59,0 0,17 -59,0 0,-17 z"
         id="path719" />
    </clipPath>
    <clipPath
       clipPathUnits="userSpaceOnUse"
       id="clipPath235">
      <path
         inkscape:connector-curvature="0"
         d="m 506,376 19,0 0,17 -19,0 0,-17 z"
         id="path716" />
    </clipPath>
    <clipPath
       clipPathUnits="userSpaceOnUse"
       id="clipPath173">
      <path
         inkscape:connector-curvature="0"
         d="m -1,-1 1341,0 0,858 -1341,0 0,-858 z"
         id="path530" />
    </clipPath>
    <clipPath
       clipPathUnits="userSpaceOnUse"
       id="clipPath43">
      <path
         inkscape:connector-curvature="0"
         d="m 408,379 77,0 0,14 -77,0 0,-14 z"
         id="path140" />
    </clipPath>
    <clipPath
       clipPathUnits="userSpaceOnUse"
       id="clipPath42">
      <path
         inkscape:connector-curvature="0"
         d="m 410,364 73,0 0,17 -73,0 0,-17 z"
         id="path137" />
    </clipPath>
    <clipPath
       clipPathUnits="userSpaceOnUse"
       id="clipPath41">
      <path
         inkscape:connector-curvature="0"
         d="m 410,349 59,0 0,17 -59,0 0,-17 z"
         id="path134" />
    </clipPath>
    <clipPath
       clipPathUnits="userSpaceOnUse"
       id="clipPath40">
      <path
         inkscape:connector-curvature="0"
         d="m 408,349 77,0 0,44 -77,0 0,-44 z"
         id="path131" />
    </clipPath>
    <clipPath
       clipPathUnits="userSpaceOnUse"
       id="clipPath7015">
      <path
         inkscape:connector-curvature="0"
         d="m 408,349 77,0 0,44 -77,0 0,-44 z"
         id="path7017" />
    </clipPath>
    <clipPath
       clipPathUnits="userSpaceOnUse"
       id="clipPath39">
      <path
         inkscape:connector-curvature="0"
         d="m 546,379 88,0 0,14 -88,0 0,-14 z"
         id="path128" />
    </clipPath>
    <clipPath
       clipPathUnits="userSpaceOnUse"
       id="clipPath38">
      <path
         inkscape:connector-curvature="0"
         d="m 548,364 84,0 0,17 -84,0 0,-17 z"
         id="path125" />
    </clipPath>
    <clipPath
       clipPathUnits="userSpaceOnUse"
       id="clipPath37">
      <path
         inkscape:connector-curvature="0"
         d="m 548,349 59,0 0,17 -59,0 0,-17 z"
         id="path122" />
    </clipPath>
    <clipPath
       clipPathUnits="userSpaceOnUse"
       id="clipPath36">
      <path
         inkscape:connector-curvature="0"
         d="m 546,349 88,0 0,44 -88,0 0,-44 z"
         id="path119" />
    </clipPath>
    <clipPath
       clipPathUnits="userSpaceOnUse"
       id="clipPath7027">
      <path
         inkscape:connector-curvature="0"
         d="m 546,349 88,0 0,44 -88,0 0,-44 z"
         id="path7029" />
    </clipPath>
    <clipPath
       clipPathUnits="userSpaceOnUse"
       id="clipPath123">
      <path
         inkscape:connector-curvature="0"
         d="m 1022,494 103,0 0,14 -103,0 0,-14 z"
         id="path380" />
    </clipPath>
    <clipPath
       clipPathUnits="userSpaceOnUse"
       id="clipPath122">
      <path
         inkscape:connector-curvature="0"
         d="m 1024,479 99,0 0,17 -99,0 0,-17 z"
         id="path377" />
    </clipPath>
    <clipPath
       clipPathUnits="userSpaceOnUse"
       id="clipPath121">
      <path
         inkscape:connector-curvature="0"
         d="m 1024,464 47,0 0,17 -47,0 0,-17 z"
         id="path374" />
    </clipPath>
    <clipPath
       clipPathUnits="userSpaceOnUse"
       id="clipPath120">
      <path
         inkscape:connector-curvature="0"
         d="m 1022,464 103,0 0,44 -103,0 0,-44 z"
         id="path371" />
    </clipPath>
    <clipPath
       clipPathUnits="userSpaceOnUse"
       id="clipPath7159">
      <path
         inkscape:connector-curvature="0"
         d="m 1022,464 103,0 0,44 -103,0 0,-44 z"
         id="path7161" />
    </clipPath>
    <clipPath
       clipPathUnits="userSpaceOnUse"
       id="clipPath120-3">
      <path
         inkscape:connector-curvature="0"
         d="m 1022,464 103,0 0,44 -103,0 0,-44 z"
         id="path371-0" />
    </clipPath>
    <clipPath
       clipPathUnits="userSpaceOnUse"
       id="clipPath121-8">
      <path
         inkscape:connector-curvature="0"
         d="m 1024,464 47,0 0,17 -47,0 0,-17 z"
         id="path374-9" />
    </clipPath>
    <clipPath
       clipPathUnits="userSpaceOnUse"
       id="clipPath122-6">
      <path
         inkscape:connector-curvature="0"
         d="m 1024,479 99,0 0,17 -99,0 0,-17 z"
         id="path377-7" />
    </clipPath>
    <clipPath
       clipPathUnits="userSpaceOnUse"
       id="clipPath123-5">
      <path
         inkscape:connector-curvature="0"
         d="m 1022,494 103,0 0,14 -103,0 0,-14 z"
         id="path380-9" />
    </clipPath>
    <clipPath
       clipPathUnits="userSpaceOnUse"
       id="clipPath173-8">
      <path
         inkscape:connector-curvature="0"
         d="m -1,-1 1341,0 0,858 -1341,0 0,-858 z"
         id="path530-7" />
    </clipPath>
    <clipPath
       clipPathUnits="userSpaceOnUse"
       id="clipPath226">
      <path
         inkscape:connector-curvature="0"
         d="m 681,310 19,0 0,17 -19,0 0,-17 z"
         id="path689" />
    </clipPath>
    <clipPath
       clipPathUnits="userSpaceOnUse"
       id="clipPath227">
      <path
         inkscape:connector-curvature="0"
         d="m 660,283 59,0 0,17 -59,0 0,-17 z"
         id="path692" />
    </clipPath>
    <clipPath
       clipPathUnits="userSpaceOnUse"
       id="clipPath228">
      <path
         inkscape:connector-curvature="0"
         d="m 715,301 10,0 0,9 -10,0 0,-9 z"
         id="path695" />
    </clipPath>
    <clipPath
       clipPathUnits="userSpaceOnUse"
       id="clipPath7244">
      <path
         inkscape:connector-curvature="0"
         d="m 715,301 10,0 0,9 -10,0 0,-9 z"
         id="path7246" />
    </clipPath>
    <clipPath
       clipPathUnits="userSpaceOnUse"
       id="clipPath7248">
      <path
         inkscape:connector-curvature="0"
         d="m -1,-1 1341,0 0,858 -1341,0 0,-858 z"
         id="path7250" />
    </clipPath>
    <clipPath
       clipPathUnits="userSpaceOnUse"
       id="clipPath7252">
      <path
         inkscape:connector-curvature="0"
         d="m 715,301 10,0 0,9 -10,0 0,-9 z"
         id="path7254" />
    </clipPath>
    <clipPath
       clipPathUnits="userSpaceOnUse"
       id="clipPath7256">
      <path
         inkscape:connector-curvature="0"
         d="m 715,301 10,0 0,9 -10,0 0,-9 z"
         id="path7258" />
    </clipPath>
    <clipPath
       clipPathUnits="userSpaceOnUse"
       id="clipPath32">
      <path
         inkscape:connector-curvature="0"
         d="m 722,283 76,0 0,44 -76,0 0,-44 z"
         id="path107" />
    </clipPath>
    <clipPath
       clipPathUnits="userSpaceOnUse"
       id="clipPath33">
      <path
         inkscape:connector-curvature="0"
         d="m 724,283 59,0 0,17 -59,0 0,-17 z"
         id="path110" />
    </clipPath>
    <clipPath
       clipPathUnits="userSpaceOnUse"
       id="clipPath34">
      <path
         inkscape:connector-curvature="0"
         d="m 724,298 72,0 0,17 -72,0 0,-17 z"
         id="path113" />
    </clipPath>
    <clipPath
       clipPathUnits="userSpaceOnUse"
       id="clipPath35">
      <path
         inkscape:connector-curvature="0"
         d="m 722,313 76,0 0,14 -76,0 0,-14 z"
         id="path116" />
    </clipPath>
    <clipPath
       clipPathUnits="userSpaceOnUse"
       id="clipPath28">
      <path
         inkscape:connector-curvature="0"
         d="m 590,283 67,0 0,44 -67,0 0,-44 z"
         id="path95" />
    </clipPath>
    <clipPath
       clipPathUnits="userSpaceOnUse"
       id="clipPath29">
      <path
         inkscape:connector-curvature="0"
         d="m 592,283 59,0 0,17 -59,0 0,-17 z"
         id="path98" />
    </clipPath>
    <clipPath
       clipPathUnits="userSpaceOnUse"
       id="clipPath30">
      <path
         inkscape:connector-curvature="0"
         d="m 592,298 63,0 0,17 -63,0 0,-17 z"
         id="path101" />
    </clipPath>
    <clipPath
       clipPathUnits="userSpaceOnUse"
       id="clipPath31">
      <path
         inkscape:connector-curvature="0"
         d="m 590,313 67,0 0,14 -67,0 0,-14 z"
         id="path104" />
    </clipPath>
    <clipPath
       clipPathUnits="userSpaceOnUse"
       id="clipPath119">
      <path
         inkscape:connector-curvature="0"
         d="m 894,494 95,0 0,14 -95,0 0,-14 z"
         id="path368" />
    </clipPath>
    <clipPath
       clipPathUnits="userSpaceOnUse"
       id="clipPath118">
      <path
         inkscape:connector-curvature="0"
         d="m 896,479 91,0 0,17 -91,0 0,-17 z"
         id="path365" />
    </clipPath>
    <clipPath
       clipPathUnits="userSpaceOnUse"
       id="clipPath117">
      <path
         inkscape:connector-curvature="0"
         d="m 896,464 47,0 0,17 -47,0 0,-17 z"
         id="path362" />
    </clipPath>
    <clipPath
       clipPathUnits="userSpaceOnUse"
       id="clipPath116">
      <path
         inkscape:connector-curvature="0"
         d="m 894,464 95,0 0,44 -95,0 0,-44 z"
         id="path359" />
    </clipPath>
    <clipPath
       clipPathUnits="userSpaceOnUse"
       id="clipPath7478">
      <path
         inkscape:connector-curvature="0"
         d="m 894,464 95,0 0,44 -95,0 0,-44 z"
         id="path7480" />
    </clipPath>
    <clipPath
       clipPathUnits="userSpaceOnUse"
       id="clipPath120-1">
      <path
         inkscape:connector-curvature="0"
         d="m 1022,464 103,0 0,44 -103,0 0,-44 z"
         id="path371-7" />
    </clipPath>
    <clipPath
       clipPathUnits="userSpaceOnUse"
       id="clipPath121-4">
      <path
         inkscape:connector-curvature="0"
         d="m 1024,464 47,0 0,17 -47,0 0,-17 z"
         id="path374-0" />
    </clipPath>
    <clipPath
       clipPathUnits="userSpaceOnUse"
       id="clipPath122-9">
      <path
         inkscape:connector-curvature="0"
         d="m 1024,479 99,0 0,17 -99,0 0,-17 z"
         id="path377-4" />
    </clipPath>
    <clipPath
       clipPathUnits="userSpaceOnUse"
       id="clipPath123-8">
      <path
         inkscape:connector-curvature="0"
         d="m 1022,494 103,0 0,14 -103,0 0,-14 z"
         id="path380-8" />
    </clipPath>
    <clipPath
       clipPathUnits="userSpaceOnUse"
       id="clipPath173-2">
      <path
         inkscape:connector-curvature="0"
         d="m -1,-1 1341,0 0,858 -1341,0 0,-858 z"
         id="path530-4" />
    </clipPath>
    <clipPath
       clipPathUnits="userSpaceOnUse"
       id="clipPath226-5">
      <path
         inkscape:connector-curvature="0"
         d="m 681,310 19,0 0,17 -19,0 0,-17 z"
         id="path689-5" />
    </clipPath>
    <clipPath
       clipPathUnits="userSpaceOnUse"
       id="clipPath227-1">
      <path
         inkscape:connector-curvature="0"
         d="m 660,283 59,0 0,17 -59,0 0,-17 z"
         id="path692-7" />
    </clipPath>
    <clipPath
       clipPathUnits="userSpaceOnUse"
       id="clipPath228-1">
      <path
         inkscape:connector-curvature="0"
         d="m 715,301 10,0 0,9 -10,0 0,-9 z"
         id="path695-1" />
    </clipPath>
    <clipPath
       clipPathUnits="userSpaceOnUse"
       id="clipPath3104">
      <path
         inkscape:connector-curvature="0"
         d="m 715,301 10,0 0,9 -10,0 0,-9 z"
         id="path3106" />
    </clipPath>
    <clipPath
       clipPathUnits="userSpaceOnUse"
       id="clipPath3108">
      <path
         inkscape:connector-curvature="0"
         d="m -1,-1 1341,0 0,858 -1341,0 0,-858 z"
         id="path3110" />
    </clipPath>
    <clipPath
       clipPathUnits="userSpaceOnUse"
       id="clipPath3112">
      <path
         inkscape:connector-curvature="0"
         d="m 715,301 10,0 0,9 -10,0 0,-9 z"
         id="path3114" />
    </clipPath>
    <clipPath
       clipPathUnits="userSpaceOnUse"
       id="clipPath3116">
      <path
         inkscape:connector-curvature="0"
         d="m 715,301 10,0 0,9 -10,0 0,-9 z"
         id="path3118" />
    </clipPath>
    <clipPath
       clipPathUnits="userSpaceOnUse"
       id="clipPath32-5">
      <path
         inkscape:connector-curvature="0"
         d="m 722,283 76,0 0,44 -76,0 0,-44 z"
         id="path107-2" />
    </clipPath>
    <clipPath
       clipPathUnits="userSpaceOnUse"
       id="clipPath33-7">
      <path
         inkscape:connector-curvature="0"
         d="m 724,283 59,0 0,17 -59,0 0,-17 z"
         id="path110-6" />
    </clipPath>
    <clipPath
       clipPathUnits="userSpaceOnUse"
       id="clipPath34-1">
      <path
         inkscape:connector-curvature="0"
         d="m 724,298 72,0 0,17 -72,0 0,-17 z"
         id="path113-4" />
    </clipPath>
    <clipPath
       clipPathUnits="userSpaceOnUse"
       id="clipPath35-2">
      <path
         inkscape:connector-curvature="0"
         d="m 722,313 76,0 0,14 -76,0 0,-14 z"
         id="path116-3" />
    </clipPath>
    <clipPath
       clipPathUnits="userSpaceOnUse"
       id="clipPath28-2">
      <path
         inkscape:connector-curvature="0"
         d="m 590,283 67,0 0,44 -67,0 0,-44 z"
         id="path95-2" />
    </clipPath>
    <clipPath
       clipPathUnits="userSpaceOnUse"
       id="clipPath29-1">
      <path
         inkscape:connector-curvature="0"
         d="m 592,283 59,0 0,17 -59,0 0,-17 z"
         id="path98-6" />
    </clipPath>
    <clipPath
       clipPathUnits="userSpaceOnUse"
       id="clipPath30-8">
      <path
         inkscape:connector-curvature="0"
         d="m 592,298 63,0 0,17 -63,0 0,-17 z"
         id="path101-5" />
    </clipPath>
    <clipPath
       clipPathUnits="userSpaceOnUse"
       id="clipPath31-7">
      <path
         inkscape:connector-curvature="0"
         d="m 590,313 67,0 0,14 -67,0 0,-14 z"
         id="path104-6" />
    </clipPath>
  </defs>
  <sodipodi:namedview
     id="base"
     pagecolor="#ffffff"
     bordercolor="#666666"
     borderopacity="1.0"
     inkscape:pageopacity="1"
     inkscape:pageshadow="2"
     inkscape:zoom="3.959798"
     inkscape:cx="330.55946"
     inkscape:cy="879.08799"
     inkscape:document-units="px"
     inkscape:current-layer="g3123"
     showgrid="false"
     inkscape:window-width="1920"
     inkscape:window-height="1018"
     inkscape:window-x="-8"
     inkscape:window-y="-8"
     inkscape:window-maximized="1" />
  <metadata
     id="metadata6982">
    <rdf:RDF>
      <cc:Work
         rdf:about="">
        <dc:format>image/svg+xml</dc:format>
        <dc:type
           rdf:resource="http://purl.org/dc/dcmitype/StillImage" />
        <dc:title></dc:title>
      </cc:Work>
    </rdf:RDF>
  </metadata>
  <g
     inkscape:label="Ebene 1"
     inkscape:groupmode="layer"
     id="layer1">
    <rect
       transform="translate(-106.42857,-235.91778)"
       style="font-style:italic;fill:none;stroke:#808080;stroke-width:1.10000002;stroke-linecap:butt;font-family:Segoe UI"
       id="rect863"
       height="41"
       width="85"
       clip-path="url(#clipPath36)"
       y="350"
       x="547" />
    <text
       transform="translate(-106.42857,-235.91778)"
       style="font-style:normal;fill:#808080;stroke:none;font-family:Segoe UI"
       id="text865"
       xml:space="preserve"
       font-style="normal"
       clip-path="url(#clipPath37)"
       y="363"
       x="549">«preserve»</text>
    <text
       transform="translate(-106.42857,-237.66524)"
       style="font-style:normal;stroke:none;font-family:Segoe UI"
       id="text867"
       xml:space="preserve"
       font-style="normal"
       clip-path="url(#clipPath38)"
       y="378"
       x="549">:RemoveObject</text>
    <line
       transform="matrix(0.99134678,0,0,1,-101.70391,-235.91778)"
       style="font-style:italic;fill:none;stroke:#808080;stroke-width:1.10000002;stroke-linecap:butt;font-family:Segoe UI"
       id="line869"
       y2="380"
       y1="380"
       x2="633"
       x1="547"
       clip-path="url(#clipPath39)" />
    <g
       id="g3123">
      <rect
         x="409"
         y="350"
         clip-path="url(#clipPath40)"
         width="74"
         height="41"
         id="rect873"
         style="font-style:italic;fill:none;stroke:#808080;stroke-width:1.10000002;stroke-linecap:butt;font-family:Segoe UI"
         transform="matrix(0.83987722,0,0,1.0022144,-28.983749,-236.73822)" />
      <text
         x="411"
         y="363"
         clip-path="url(#clipPath41)"
         font-style="normal"
         xml:space="preserve"
         id="text875"
         style="font-style:normal;fill:#808080;stroke:none;font-family:Segoe UI"
         transform="translate(-94.428571,-235.91778)">«preserve»</text>
      <text
         x="411"
         y="378"
         clip-path="url(#clipPath42)"
         font-style="normal"
         xml:space="preserve"
         id="text877"
         style="font-style:normal;stroke:none;font-family:Segoe UI"
         transform="translate(-94.428571,-235.91778)">A:ClassX</text>
      <line
         clip-path="url(#clipPath43)"
         x1="409"
         x2="484"
         y1="380"
         y2="380"
         id="line879"
         style="font-style:italic;fill:none;stroke:#808080;stroke-width:1.10000002;stroke-linecap:butt;font-family:Segoe UI"
         transform="matrix(0.83328388,0,0,1.0022144,-26.293665,-236.73822)" />
    </g>
    <line
       transform="translate(-106.42857,-235.91778)"
       style="font-style:italic;fill:none;stroke:#808080;stroke-width:1.10000002;stroke-linecap:butt;font-family:Segoe UI"
       id="line1413"
       y2="373"
       y1="373"
       x2="484"
       x1="547"
       clip-path="url(#clipPath173)" />
    <text
       transform="translate(-106.42857,-235.91778)"
       style="font-style:normal;stroke:none;font-family:Segoe UI"
       id="text1415"
       xml:space="preserve"
       font-style="normal"
       clip-path="url(#clipPath235)"
       y="390"
       x="507">obj</text>
    <text
       transform="translate(-106.42857,-235.91778)"
       style="font-style:normal;fill:#808080;stroke:none;font-family:Segoe UI"
       id="text1417"
       xml:space="preserve"
       font-style="normal"
       clip-path="url(#clipPath236)"
       y="363"
       x="487">«preserve»</text>
    <line
       transform="translate(-106.42857,-235.91778)"
       style="font-style:italic;fill:none;stroke:#808080;stroke-width:1.10000002;stroke-linecap:butt;font-family:Segoe UI"
       id="line1419"
       y2="373"
       y1="370"
       x2="484"
       x1="491"
       clip-path="url(#clipPath237)" />
    <line
       transform="translate(-106.42857,-235.91778)"
       style="font-style:italic;fill:none;stroke:#808080;stroke-width:1.10000002;stroke-linecap:butt;font-family:Segoe UI"
       id="line1421"
       y2="376"
       y1="373"
       x2="491"
       x1="484"
       clip-path="url(#clipPath237)" />
    <g
       id="g3117"
       transform="translate(-20,-0.44056)">
      <rect
         x="895"
         y="465"
         clip-path="url(#clipPath116)"
         width="92"
         height="41"
         id="rect1061"
         style="font-style:italic;fill:none;stroke:#ff0000;stroke-width:1.10000002;stroke-linecap:butt;font-family:Segoe UI"
         transform="matrix(0.68273559,0,0,1.0046024,-377.55302,-352.71169)" />
      <text
         x="897"
         y="478"
         clip-path="url(#clipPath117)"
         font-style="normal"
         xml:space="preserve"
         id="text1063"
         style="font-style:normal;fill:#ff0000;stroke:none;font-family:Segoe UI"
         transform="translate(-661.40858,-350.47725)">«delete»</text>
      <text
         x="897"
         y="493"
         clip-path="url(#clipPath118)"
         font-style="normal"
         xml:space="preserve"
         id="text1065"
         style="font-style:normal;stroke:none;font-family:Segoe UI"
         transform="translate(-661.40858,-350.47725)">E:ClassX</text>
      <line
         clip-path="url(#clipPath119)"
         x1="895"
         x2="988"
         y1="495"
         y2="495"
         id="line1067"
         style="font-style:italic;fill:none;stroke:#ff0000;stroke-width:1.10000002;stroke-linecap:butt;font-family:Segoe UI"
         transform="matrix(0.67840478,0,0,1.0046024,-373.68128,-352.71169)" />
    </g>
    <g
       id="1-1-1"
       transform="matrix(0.12249098,0,0,0.12249098,70.901283,50.106311)">
      <path
         d="m 1713.2,614.4 124,0 -11.6,11.6 0,-94.2 139.5,157.8 -139.5,157.9 0,-94.3 11.6,11.6 -124,0 0,-150.4 z m 23.2,138.8 -11.6,-11.6 124,0 0,75.2 -20.2,-7.6 112.4,-127.2 0,15.3 -112.4,-127.2 20.2,-7.7 0,75.2 -124,0 11.6,-11.6 0,127.2 z"
         style="fill:#000000;fill-opacity:1;fill-rule:nonzero;stroke:#000000;stroke-width:0.1px;stroke-linecap:butt;stroke-linejoin:round;stroke-opacity:1;stroke-dasharray:none"
         id="2-7-7"
         inkscape:connector-curvature="0" />
    </g>
  </g>
</svg>
