<?xml version="1.0" encoding="UTF-8" standalone="no"?>
<!-- Created with Inkscape (http://www.inkscape.org/) -->

<svg
   xmlns:dc="http://purl.org/dc/elements/1.1/"
   xmlns:cc="http://creativecommons.org/ns#"
   xmlns:rdf="http://www.w3.org/1999/02/22-rdf-syntax-ns#"
   xmlns:svg="http://www.w3.org/2000/svg"
   xmlns="http://www.w3.org/2000/svg"
   xmlns:sodipodi="http://sodipodi.sourceforge.net/DTD/sodipodi-0.dtd"
   xmlns:inkscape="http://www.inkscape.org/namespaces/inkscape"
   width="210mm"
   height="297mm"
   id="svg5960"
   version="1.1"
   inkscape:version="0.48.1 "
   sodipodi:docname="pattern_correspondence.svg"
   inkscape:export-filename="E:\Workspace\Bachelorarbeit\source\images\pattern_correspondence.png"
   inkscape:export-xdpi="300"
   inkscape:export-ydpi="300">
  <defs
     id="defs5962">
    <clipPath
       clipPathUnits="userSpaceOnUse"
       id="clipPath252">
      <path
         inkscape:connector-curvature="0"
         d="m 443,200 9,0 0,10 -9,0 0,-10 z"
         id="path767" />
    </clipPath>
    <clipPath
       clipPathUnits="userSpaceOnUse"
       id="clipPath5688">
      <path
         inkscape:connector-curvature="0"
         d="m 443,200 9,0 0,10 -9,0 0,-10 z"
         id="path5690" />
    </clipPath>
    <clipPath
       clipPathUnits="userSpaceOnUse"
       id="clipPath173">
      <path
         inkscape:connector-curvature="0"
         d="m -1,-1 1341,0 0,858 -1341,0 0,-858 z"
         id="path530" />
    </clipPath>
    <clipPath
       clipPathUnits="userSpaceOnUse"
       id="clipPath225">
      <path
         inkscape:connector-curvature="0"
         d="m 755,200 9,0 0,10 -9,0 0,-10 z"
         id="path686" />
    </clipPath>
    <clipPath
       clipPathUnits="userSpaceOnUse"
       id="clipPath5696">
      <path
         inkscape:connector-curvature="0"
         d="m 755,200 9,0 0,10 -9,0 0,-10 z"
         id="path5698" />
    </clipPath>
    <clipPath
       clipPathUnits="userSpaceOnUse"
       id="clipPath5700">
      <path
         inkscape:connector-curvature="0"
         d="m -1,-1 1341,0 0,858 -1341,0 0,-858 z"
         id="path5702" />
    </clipPath>
    <clipPath
       clipPathUnits="userSpaceOnUse"
       id="clipPath5704">
      <path
         inkscape:connector-curvature="0"
         d="m 443,200 9,0 0,10 -9,0 0,-10 z"
         id="path5706" />
    </clipPath>
    <clipPath
       clipPathUnits="userSpaceOnUse"
       id="clipPath5708">
      <path
         inkscape:connector-curvature="0"
         d="m 443,200 9,0 0,10 -9,0 0,-10 z"
         id="path5710" />
    </clipPath>
    <clipPath
       clipPathUnits="userSpaceOnUse"
       id="clipPath251">
      <path
         inkscape:connector-curvature="0"
         d="m 384,171 59,0 0,17 -59,0 0,-17 z"
         id="path764" />
    </clipPath>
    <clipPath
       clipPathUnits="userSpaceOnUse"
       id="clipPath5714">
      <path
         inkscape:connector-curvature="0"
         d="m -1,-1 1341,0 0,858 -1341,0 0,-858 z"
         id="path5716" />
    </clipPath>
    <clipPath
       clipPathUnits="userSpaceOnUse"
       id="clipPath243">
      <path
         inkscape:connector-curvature="0"
         d="m 716,225 10,0 0,9 -10,0 0,-9 z"
         id="path740" />
    </clipPath>
    <clipPath
       clipPathUnits="userSpaceOnUse"
       id="clipPath5720">
      <path
         inkscape:connector-curvature="0"
         d="m 716,225 10,0 0,9 -10,0 0,-9 z"
         id="path5722" />
    </clipPath>
    <clipPath
       clipPathUnits="userSpaceOnUse"
       id="clipPath242">
      <path
         inkscape:connector-curvature="0"
         d="m 659,207 59,0 0,17 -59,0 0,-17 z"
         id="path737" />
    </clipPath>
    <clipPath
       clipPathUnits="userSpaceOnUse"
       id="clipPath241">
      <path
         inkscape:connector-curvature="0"
         d="m 677,234 26,0 0,17 -26,0 0,-17 z"
         id="path734" />
    </clipPath>
    <clipPath
       clipPathUnits="userSpaceOnUse"
       id="clipPath5728">
      <path
         inkscape:connector-curvature="0"
         d="m -1,-1 1341,0 0,858 -1341,0 0,-858 z"
         id="path5730" />
    </clipPath>
    <clipPath
       clipPathUnits="userSpaceOnUse"
       id="clipPath240">
      <path
         inkscape:connector-curvature="0"
         d="m 715,143 10,0 0,9 -10,0 0,-9 z"
         id="path731" />
    </clipPath>
    <clipPath
       clipPathUnits="userSpaceOnUse"
       id="clipPath5734">
      <path
         inkscape:connector-curvature="0"
         d="m 715,143 10,0 0,9 -10,0 0,-9 z"
         id="path5736" />
    </clipPath>
    <clipPath
       clipPathUnits="userSpaceOnUse"
       id="clipPath239">
      <path
         inkscape:connector-curvature="0"
         d="m 660,125 59,0 0,17 -59,0 0,-17 z"
         id="path728" />
    </clipPath>
    <clipPath
       clipPathUnits="userSpaceOnUse"
       id="clipPath238">
      <path
         inkscape:connector-curvature="0"
         d="m 677,152 26,0 0,17 -26,0 0,-17 z"
         id="path725" />
    </clipPath>
    <clipPath
       clipPathUnits="userSpaceOnUse"
       id="clipPath5742">
      <path
         inkscape:connector-curvature="0"
         d="m -1,-1 1341,0 0,858 -1341,0 0,-858 z"
         id="path5744" />
    </clipPath>
    <clipPath
       clipPathUnits="userSpaceOnUse"
       id="clipPath231">
      <path
         inkscape:connector-curvature="0"
         d="m 796,143 10,0 0,9 -10,0 0,-9 z"
         id="path704" />
    </clipPath>
    <clipPath
       clipPathUnits="userSpaceOnUse"
       id="clipPath5748">
      <path
         inkscape:connector-curvature="0"
         d="m 796,143 10,0 0,9 -10,0 0,-9 z"
         id="path5750" />
    </clipPath>
    <clipPath
       clipPathUnits="userSpaceOnUse"
       id="clipPath5752">
      <path
         inkscape:connector-curvature="0"
         d="m 755,200 9,0 0,10 -9,0 0,-10 z"
         id="path5754" />
    </clipPath>
    <clipPath
       clipPathUnits="userSpaceOnUse"
       id="clipPath5756">
      <path
         inkscape:connector-curvature="0"
         d="m 755,200 9,0 0,10 -9,0 0,-10 z"
         id="path5758" />
    </clipPath>
    <clipPath
       clipPathUnits="userSpaceOnUse"
       id="clipPath224">
      <path
         inkscape:connector-curvature="0"
         d="m 769,171 59,0 0,17 -59,0 0,-17 z"
         id="path683" />
    </clipPath>
    <clipPath
       clipPathUnits="userSpaceOnUse"
       id="clipPath5762">
      <path
         inkscape:connector-curvature="0"
         d="m -1,-1 1341,0 0,858 -1341,0 0,-858 z"
         id="path5764" />
    </clipPath>
    <clipPath
       clipPathUnits="userSpaceOnUse"
       id="clipPath222">
      <path
         inkscape:connector-curvature="0"
         d="m 483,143 10,0 0,9 -10,0 0,-9 z"
         id="path677" />
    </clipPath>
    <clipPath
       clipPathUnits="userSpaceOnUse"
       id="clipPath5768">
      <path
         inkscape:connector-curvature="0"
         d="m 483,143 10,0 0,9 -10,0 0,-9 z"
         id="path5770" />
    </clipPath>
    <clipPath
       clipPathUnits="userSpaceOnUse"
       id="clipPath221">
      <path
         inkscape:connector-curvature="0"
         d="m 486,125 59,0 0,17 -59,0 0,-17 z"
         id="path674" />
    </clipPath>
    <clipPath
       clipPathUnits="userSpaceOnUse"
       id="clipPath220">
      <path
         inkscape:connector-curvature="0"
         d="m 502,152 27,0 0,17 -27,0 0,-17 z"
         id="path671" />
    </clipPath>
    <clipPath
       clipPathUnits="userSpaceOnUse"
       id="clipPath5776">
      <path
         inkscape:connector-curvature="0"
         d="m -1,-1 1341,0 0,858 -1341,0 0,-858 z"
         id="path5778" />
    </clipPath>
    <clipPath
       clipPathUnits="userSpaceOnUse"
       id="clipPath219">
      <path
         inkscape:connector-curvature="0"
         d="m 794,225 10,0 0,9 -10,0 0,-9 z"
         id="path668" />
    </clipPath>
    <clipPath
       clipPathUnits="userSpaceOnUse"
       id="clipPath5782">
      <path
         inkscape:connector-curvature="0"
         d="m 794,225 10,0 0,9 -10,0 0,-9 z"
         id="path5784" />
    </clipPath>
    <clipPath
       clipPathUnits="userSpaceOnUse"
       id="clipPath212">
      <path
         inkscape:connector-curvature="0"
         d="m 401,143 10,0 0,9 -10,0 0,-9 z"
         id="path647" />
    </clipPath>
    <clipPath
       clipPathUnits="userSpaceOnUse"
       id="clipPath5788">
      <path
         inkscape:connector-curvature="0"
         d="m 401,143 10,0 0,9 -10,0 0,-9 z"
         id="path5790" />
    </clipPath>
    <clipPath
       clipPathUnits="userSpaceOnUse"
       id="clipPath194">
      <path
         inkscape:connector-curvature="0"
         d="m 403,227 10,0 0,9 -10,0 0,-9 z"
         id="path593" />
    </clipPath>
    <clipPath
       clipPathUnits="userSpaceOnUse"
       id="clipPath5794">
      <path
         inkscape:connector-curvature="0"
         d="m 403,227 10,0 0,9 -10,0 0,-9 z"
         id="path5796" />
    </clipPath>
    <clipPath
       clipPathUnits="userSpaceOnUse"
       id="clipPath176">
      <path
         inkscape:connector-curvature="0"
         d="m 482,225 10,0 0,9 -10,0 0,-9 z"
         id="path539" />
    </clipPath>
    <clipPath
       clipPathUnits="userSpaceOnUse"
       id="clipPath5800">
      <path
         inkscape:connector-curvature="0"
         d="m 482,225 10,0 0,9 -10,0 0,-9 z"
         id="path5802" />
    </clipPath>
    <clipPath
       clipPathUnits="userSpaceOnUse"
       id="clipPath175">
      <path
         inkscape:connector-curvature="0"
         d="m 486,207 59,0 0,17 -59,0 0,-17 z"
         id="path536" />
    </clipPath>
    <clipPath
       clipPathUnits="userSpaceOnUse"
       id="clipPath174">
      <path
         inkscape:connector-curvature="0"
         d="m 502,234 26,0 0,17 -26,0 0,-17 z"
         id="path533" />
    </clipPath>
    <clipPath
       clipPathUnits="userSpaceOnUse"
       id="clipPath5808">
      <path
         inkscape:connector-curvature="0"
         d="m -1,-1 1341,0 0,858 -1341,0 0,-858 z"
         id="path5810" />
    </clipPath>
    <clipPath
       clipPathUnits="userSpaceOnUse"
       id="clipPath27">
      <path
         inkscape:connector-curvature="0"
         d="m 410,237 74,0 0,14 -74,0 0,-14 z"
         id="path92" />
    </clipPath>
    <clipPath
       clipPathUnits="userSpaceOnUse"
       id="clipPath26">
      <path
         inkscape:connector-curvature="0"
         d="m 412,222 70,0 0,17 -70,0 0,-17 z"
         id="path89" />
    </clipPath>
    <clipPath
       clipPathUnits="userSpaceOnUse"
       id="clipPath25">
      <path
         inkscape:connector-curvature="0"
         d="m 412,207 59,0 0,17 -59,0 0,-17 z"
         id="path86" />
    </clipPath>
    <clipPath
       clipPathUnits="userSpaceOnUse"
       id="clipPath24">
      <path
         inkscape:connector-curvature="0"
         d="m 410,207 74,0 0,44 -74,0 0,-44 z"
         id="path83" />
    </clipPath>
    <clipPath
       clipPathUnits="userSpaceOnUse"
       id="clipPath5820">
      <path
         inkscape:connector-curvature="0"
         d="m 410,207 74,0 0,44 -74,0 0,-44 z"
         id="path5822" />
    </clipPath>
    <clipPath
       clipPathUnits="userSpaceOnUse"
       id="clipPath23">
      <path
         inkscape:connector-curvature="0"
         d="m 408,155 77,0 0,14 -77,0 0,-14 z"
         id="path80" />
    </clipPath>
    <clipPath
       clipPathUnits="userSpaceOnUse"
       id="clipPath22">
      <path
         inkscape:connector-curvature="0"
         d="m 410,140 73,0 0,17 -73,0 0,-17 z"
         id="path77" />
    </clipPath>
    <clipPath
       clipPathUnits="userSpaceOnUse"
       id="clipPath21">
      <path
         inkscape:connector-curvature="0"
         d="m 410,125 59,0 0,17 -59,0 0,-17 z"
         id="path74" />
    </clipPath>
    <clipPath
       clipPathUnits="userSpaceOnUse"
       id="clipPath20">
      <path
         inkscape:connector-curvature="0"
         d="m 408,125 77,0 0,44 -77,0 0,-44 z"
         id="path71" />
    </clipPath>
    <clipPath
       clipPathUnits="userSpaceOnUse"
       id="clipPath5832">
      <path
         inkscape:connector-curvature="0"
         d="m 408,125 77,0 0,44 -77,0 0,-44 z"
         id="path5834" />
    </clipPath>
    <clipPath
       clipPathUnits="userSpaceOnUse"
       id="clipPath19">
      <path
         inkscape:connector-curvature="0"
         d="m 723,237 73,0 0,14 -73,0 0,-14 z"
         id="path68" />
    </clipPath>
    <clipPath
       clipPathUnits="userSpaceOnUse"
       id="clipPath18">
      <path
         inkscape:connector-curvature="0"
         d="m 725,222 69,0 0,17 -69,0 0,-17 z"
         id="path65" />
    </clipPath>
    <clipPath
       clipPathUnits="userSpaceOnUse"
       id="clipPath17">
      <path
         inkscape:connector-curvature="0"
         d="m 725,207 59,0 0,17 -59,0 0,-17 z"
         id="path62" />
    </clipPath>
    <clipPath
       clipPathUnits="userSpaceOnUse"
       id="clipPath16">
      <path
         inkscape:connector-curvature="0"
         d="m 723,207 73,0 0,44 -73,0 0,-44 z"
         id="path59" />
    </clipPath>
    <clipPath
       clipPathUnits="userSpaceOnUse"
       id="clipPath5844">
      <path
         inkscape:connector-curvature="0"
         d="m 723,207 73,0 0,44 -73,0 0,-44 z"
         id="path5846" />
    </clipPath>
    <clipPath
       clipPathUnits="userSpaceOnUse"
       id="clipPath15">
      <path
         inkscape:connector-curvature="0"
         d="m 722,155 76,0 0,14 -76,0 0,-14 z"
         id="path56" />
    </clipPath>
    <clipPath
       clipPathUnits="userSpaceOnUse"
       id="clipPath14">
      <path
         inkscape:connector-curvature="0"
         d="m 724,140 72,0 0,17 -72,0 0,-17 z"
         id="path53" />
    </clipPath>
    <clipPath
       clipPathUnits="userSpaceOnUse"
       id="clipPath13">
      <path
         inkscape:connector-curvature="0"
         d="m 724,125 59,0 0,17 -59,0 0,-17 z"
         id="path50" />
    </clipPath>
    <clipPath
       clipPathUnits="userSpaceOnUse"
       id="clipPath12">
      <path
         inkscape:connector-curvature="0"
         d="m 722,125 76,0 0,44 -76,0 0,-44 z"
         id="path47" />
    </clipPath>
    <clipPath
       clipPathUnits="userSpaceOnUse"
       id="clipPath5856">
      <path
         inkscape:connector-curvature="0"
         d="m 722,125 76,0 0,44 -76,0 0,-44 z"
         id="path5858" />
    </clipPath>
    <clipPath
       clipPathUnits="userSpaceOnUse"
       id="clipPath11">
      <path
         inkscape:connector-curvature="0"
         d="m 546,237 111,0 0,14 -111,0 0,-14 z"
         id="path44" />
    </clipPath>
    <clipPath
       clipPathUnits="userSpaceOnUse"
       id="clipPath10">
      <path
         inkscape:connector-curvature="0"
         d="m 548,222 107,0 0,17 -107,0 0,-17 z"
         id="path41" />
    </clipPath>
    <clipPath
       clipPathUnits="userSpaceOnUse"
       id="clipPath9">
      <path
         inkscape:connector-curvature="0"
         d="m 548,207 59,0 0,17 -59,0 0,-17 z"
         id="path38" />
    </clipPath>
    <clipPath
       clipPathUnits="userSpaceOnUse"
       id="clipPath8">
      <path
         inkscape:connector-curvature="0"
         d="m 546,207 111,0 0,44 -111,0 0,-44 z"
         id="path35" />
    </clipPath>
    <clipPath
       clipPathUnits="userSpaceOnUse"
       id="clipPath5868">
      <path
         inkscape:connector-curvature="0"
         d="m 546,207 111,0 0,44 -111,0 0,-44 z"
         id="path5870" />
    </clipPath>
    <clipPath
       clipPathUnits="userSpaceOnUse"
       id="clipPath7">
      <path
         inkscape:connector-curvature="0"
         d="m 546,155 111,0 0,14 -111,0 0,-14 z"
         id="path32" />
    </clipPath>
    <clipPath
       clipPathUnits="userSpaceOnUse"
       id="clipPath6">
      <path
         inkscape:connector-curvature="0"
         d="m 548,140 107,0 0,17 -107,0 0,-17 z"
         id="path29" />
    </clipPath>
    <clipPath
       clipPathUnits="userSpaceOnUse"
       id="clipPath5">
      <path
         inkscape:connector-curvature="0"
         d="m 548,125 59,0 0,17 -59,0 0,-17 z"
         id="path26" />
    </clipPath>
    <clipPath
       clipPathUnits="userSpaceOnUse"
       id="clipPath4">
      <path
         inkscape:connector-curvature="0"
         d="m 546,125 111,0 0,44 -111,0 0,-44 z"
         id="path23" />
    </clipPath>
    <clipPath
       clipPathUnits="userSpaceOnUse"
       id="clipPath5880">
      <path
         inkscape:connector-curvature="0"
         d="m 546,125 111,0 0,44 -111,0 0,-44 z"
         id="path5882" />
    </clipPath>
    <clipPath
       clipPathUnits="userSpaceOnUse"
       id="clipPath203">
      <path
         inkscape:connector-curvature="0"
         d="m 928,383 9,0 0,10 -9,0 0,-10 z"
         id="path620" />
    </clipPath>
    <clipPath
       clipPathUnits="userSpaceOnUse"
       id="clipPath6425">
      <path
         inkscape:connector-curvature="0"
         d="m 928,383 9,0 0,10 -9,0 0,-10 z"
         id="path6427" />
    </clipPath>
    <clipPath
       clipPathUnits="userSpaceOnUse"
       id="clipPath202">
      <path
         inkscape:connector-curvature="0"
         d="m 940,355 59,0 0,17 -59,0 0,-17 z"
         id="path617" />
    </clipPath>
    <clipPath
       clipPathUnits="userSpaceOnUse"
       id="clipPath173-7">
      <path
         inkscape:connector-curvature="0"
         d="m -1,-1 1341,0 0,858 -1341,0 0,-858 z"
         id="path530-5" />
    </clipPath>
    <clipPath
       clipPathUnits="userSpaceOnUse"
       id="clipPath99">
      <path
         inkscape:connector-curvature="0"
         d="m 896,420 73,0 0,14 -73,0 0,-14 z"
         id="path308" />
    </clipPath>
    <clipPath
       clipPathUnits="userSpaceOnUse"
       id="clipPath98">
      <path
         inkscape:connector-curvature="0"
         d="m 898,405 69,0 0,17 -69,0 0,-17 z"
         id="path305" />
    </clipPath>
    <clipPath
       clipPathUnits="userSpaceOnUse"
       id="clipPath97">
      <path
         inkscape:connector-curvature="0"
         d="m 898,390 59,0 0,17 -59,0 0,-17 z"
         id="path302" />
    </clipPath>
    <clipPath
       clipPathUnits="userSpaceOnUse"
       id="clipPath96">
      <path
         inkscape:connector-curvature="0"
         d="m 896,390 73,0 0,44 -73,0 0,-44 z"
         id="path299" />
    </clipPath>
    <clipPath
       clipPathUnits="userSpaceOnUse"
       id="clipPath6441">
      <path
         inkscape:connector-curvature="0"
         d="m 896,390 73,0 0,44 -73,0 0,-44 z"
         id="path6443" />
    </clipPath>
    <clipPath
       clipPathUnits="userSpaceOnUse"
       id="clipPath95">
      <path
         inkscape:connector-curvature="0"
         d="m 895,338 76,0 0,14 -76,0 0,-14 z"
         id="path296" />
    </clipPath>
    <clipPath
       clipPathUnits="userSpaceOnUse"
       id="clipPath94">
      <path
         inkscape:connector-curvature="0"
         d="m 897,323 72,0 0,17 -72,0 0,-17 z"
         id="path293" />
    </clipPath>
    <clipPath
       clipPathUnits="userSpaceOnUse"
       id="clipPath93">
      <path
         inkscape:connector-curvature="0"
         d="m 897,308 59,0 0,17 -59,0 0,-17 z"
         id="path290" />
    </clipPath>
    <clipPath
       clipPathUnits="userSpaceOnUse"
       id="clipPath92">
      <path
         inkscape:connector-curvature="0"
         d="m 895,308 76,0 0,44 -76,0 0,-44 z"
         id="path287" />
    </clipPath>
    <clipPath
       clipPathUnits="userSpaceOnUse"
       id="clipPath6453">
      <path
         inkscape:connector-curvature="0"
         d="m 895,308 76,0 0,44 -76,0 0,-44 z"
         id="path6455" />
    </clipPath>
  </defs>
  <sodipodi:namedview
     id="base"
     pagecolor="#ffffff"
     bordercolor="#666666"
     borderopacity="1.0"
     inkscape:pageopacity="1"
     inkscape:pageshadow="2"
     inkscape:zoom="1.979899"
     inkscape:cx="335.25015"
     inkscape:cy="931.45365"
     inkscape:document-units="px"
     inkscape:current-layer="layer1"
     showgrid="false"
     inkscape:window-width="1920"
     inkscape:window-height="1018"
     inkscape:window-x="-8"
     inkscape:window-y="-8"
     inkscape:window-maximized="1" />
  <metadata
     id="metadata5965">
    <rdf:RDF>
      <cc:Work
         rdf:about="">
        <dc:format>image/svg+xml</dc:format>
        <dc:type
           rdf:resource="http://purl.org/dc/dcmitype/StillImage" />
        <dc:title></dc:title>
      </cc:Work>
    </rdf:RDF>
  </metadata>
  <g
     inkscape:label="Ebene 1"
     inkscape:groupmode="layer"
     id="layer1">
    <rect
       transform="translate(-155.45881,-56.023898)"
       style="font-style:italic;fill:none;stroke:#808080;stroke-width:1.10000002;stroke-linecap:butt;font-family:Segoe UI"
       id="rect783"
       height="41"
       width="108"
       clip-path="url(#clipPath4)"
       y="126"
       x="547" />
    <text
       transform="translate(-155.45881,-56.023898)"
       style="font-style:normal;fill:#808080;stroke:none;font-family:Segoe UI"
       id="text785"
       xml:space="preserve"
       font-style="normal"
       clip-path="url(#clipPath5)"
       y="139"
       x="549">«preserve»</text>
    <text
       transform="translate(-155.45881,-57.809613)"
       style="font-style:normal;stroke:none;font-family:Segoe UI"
       id="text787"
       xml:space="preserve"
       font-style="normal"
       clip-path="url(#clipPath6)"
       y="154"
       x="549">C2:Correspondence</text>
    <line
       transform="matrix(0.99428917,0,0,1,-152.3407,-56.023898)"
       style="font-style:italic;fill:none;stroke:#808080;stroke-width:1.10000002;stroke-linecap:butt;font-family:Segoe UI"
       id="line789"
       y2="156"
       y1="156"
       x2="656"
       x1="547"
       clip-path="url(#clipPath7)" />
    <rect
       transform="translate(-155.45881,-56.023898)"
       style="font-style:italic;fill:none;stroke:#808080;stroke-width:1.10000002;stroke-linecap:butt;font-family:Segoe UI"
       id="rect793"
       height="41"
       width="108"
       clip-path="url(#clipPath8)"
       y="208"
       x="547" />
    <text
       transform="translate(-155.45881,-56.023898)"
       style="font-style:normal;fill:#808080;stroke:none;font-family:Segoe UI"
       id="text795"
       xml:space="preserve"
       font-style="normal"
       clip-path="url(#clipPath9)"
       y="221"
       x="549">«preserve»</text>
    <text
       transform="translate(-155.45881,-57.809613)"
       style="font-style:normal;stroke:none;font-family:Segoe UI"
       id="text797"
       xml:space="preserve"
       font-style="normal"
       clip-path="url(#clipPath10)"
       y="236"
       x="549">C1:Correspondence</text>
    <line
       transform="matrix(0.993147,0,0,1,-151.71707,-56.023898)"
       style="font-style:italic;fill:none;stroke:#808080;stroke-width:1.10000002;stroke-linecap:butt;font-family:Segoe UI"
       id="line799"
       y2="238"
       y1="238"
       x2="656"
       x1="547"
       clip-path="url(#clipPath11)" />
    <rect
       transform="matrix(0.85831714,0,0,1.0006533,-53.063267,-56.146396)"
       style="font-style:italic;fill:none;stroke:#808080;stroke-width:1.10000002;stroke-linecap:butt;font-family:Segoe UI"
       id="rect803"
       height="41"
       width="73"
       clip-path="url(#clipPath12)"
       y="126"
       x="723" />
    <text
       transform="translate(-155.45881,-56.023898)"
       style="font-style:normal;fill:#808080;stroke:none;font-family:Segoe UI"
       id="text805"
       xml:space="preserve"
       font-style="normal"
       clip-path="url(#clipPath13)"
       y="139"
       x="725">«preserve»</text>
    <text
       transform="translate(-155.45881,-56.023898)"
       style="font-style:normal;stroke:none;font-family:Segoe UI"
       id="text807"
       xml:space="preserve"
       font-style="normal"
       clip-path="url(#clipPath14)"
       y="154"
       x="725">B1:ClassX</text>
    <line
       transform="matrix(0.85114479,0,0,1.0006533,-47.884834,-56.146396)"
       style="font-style:italic;fill:none;stroke:#808080;stroke-width:1.10000002;stroke-linecap:butt;font-family:Segoe UI"
       id="line809"
       y2="156"
       y1="156"
       x2="797"
       x1="723"
       clip-path="url(#clipPath15)" />
    <rect
       transform="matrix(0.85831714,0,0,1.0006533,-53.063267,-56.146396)"
       style="font-style:italic;fill:none;stroke:#808080;stroke-width:1.10000002;stroke-linecap:butt;font-family:Segoe UI"
       id="rect813"
       height="41"
       width="70"
       clip-path="url(#clipPath16)"
       y="208"
       x="724" />
    <text
       transform="translate(-155.45881,-56.023898)"
       style="font-style:normal;fill:#808080;stroke:none;font-family:Segoe UI"
       id="text815"
       xml:space="preserve"
       font-style="normal"
       clip-path="url(#clipPath17)"
       y="221"
       x="726">«preserve»</text>
    <text
       transform="translate(-155.45881,-56.023898)"
       style="font-style:normal;stroke:none;font-family:Segoe UI"
       id="text817"
       xml:space="preserve"
       font-style="normal"
       clip-path="url(#clipPath18)"
       y="236"
       x="726">B2:ClassY</text>
    <line
       transform="matrix(0.84786068,0,0,1.0006533,-45.503244,-56.146396)"
       style="font-style:italic;fill:none;stroke:#808080;stroke-width:1.10000002;stroke-linecap:butt;font-family:Segoe UI"
       id="line819"
       y2="238"
       y1="238"
       x2="795"
       x1="724"
       clip-path="url(#clipPath19)" />
    <rect
       transform="matrix(0.84969493,0,0,1.0006945,-82.42103,-56.154119)"
       style="font-style:italic;fill:none;stroke:#808080;stroke-width:1.10000002;stroke-linecap:butt;font-family:Segoe UI"
       id="rect823"
       height="41"
       width="74"
       clip-path="url(#clipPath20)"
       y="126"
       x="409" />
    <text
       transform="translate(-143.85159,-56.023898)"
       style="font-style:normal;fill:#808080;stroke:none;font-family:Segoe UI"
       id="text825"
       xml:space="preserve"
       font-style="normal"
       clip-path="url(#clipPath21)"
       y="139"
       x="411">«preserve»</text>
    <text
       transform="translate(-143.85159,-56.023898)"
       style="font-style:normal;stroke:none;font-family:Segoe UI"
       xml:space="preserve"
       font-style="normal"
       clip-path="url(#clipPath22)"
       y="154"
       x="411"
       id="text5224">A1:ClassX</text>
    <line
       transform="matrix(0.83988436,0,0,1.0006945,-78.418321,-56.154119)"
       style="font-style:italic;fill:none;stroke:#808080;stroke-width:1.10000002;stroke-linecap:butt;font-family:Segoe UI"
       id="line829"
       y2="156"
       y1="156"
       x2="484"
       x1="409"
       clip-path="url(#clipPath23)" />
    <rect
       transform="matrix(0.84969493,0,0,1.0006945,-82.42103,-56.154119)"
       style="font-style:italic;fill:none;stroke:#808080;stroke-width:1.10000002;stroke-linecap:butt;font-family:Segoe UI"
       id="rect833"
       height="41"
       width="71"
       clip-path="url(#clipPath24)"
       y="208"
       x="411" />
    <text
       transform="translate(-143.85159,-56.023898)"
       style="font-style:normal;fill:#808080;stroke:none;font-family:Segoe UI"
       id="text835"
       xml:space="preserve"
       font-style="normal"
       clip-path="url(#clipPath25)"
       y="221"
       x="413">«preserve»</text>
    <text
       transform="translate(-143.85159,-56.023898)"
       style="font-style:normal;stroke:none;font-family:Segoe UI"
       xml:space="preserve"
       font-style="normal"
       clip-path="url(#clipPath26)"
       y="236"
       x="413"
       id="text5226">A2:ClassY</text>
    <line
       transform="matrix(0.83948424,0,0,1.0006945,-78.234643,-56.154119)"
       style="font-style:italic;fill:none;stroke:#808080;stroke-width:1.10000002;stroke-linecap:butt;font-family:Segoe UI"
       id="line839"
       y2="238"
       y1="238"
       x2="483"
       x1="411"
       clip-path="url(#clipPath27)" />
    <line
       transform="translate(-155.45881,-56.023898)"
       style="font-style:italic;fill:none;stroke:#808080;stroke-width:1.10000002;stroke-linecap:butt;font-family:Segoe UI"
       id="line1195"
       y2="229"
       y1="229"
       x2="483"
       x1="547"
       clip-path="url(#clipPath173)" />
    <text
       transform="translate(-154.75666,-56.023898)"
       style="font-style:normal;stroke:none;font-family:Segoe UI"
       id="text1197"
       xml:space="preserve"
       font-style="normal"
       clip-path="url(#clipPath174)"
       y="248"
       x="503">objB</text>
    <text
       transform="translate(-155.45881,-56.023898)"
       style="font-style:normal;fill:#808080;stroke:none;font-family:Segoe UI"
       id="text1199"
       xml:space="preserve"
       font-style="normal"
       clip-path="url(#clipPath175)"
       y="221"
       x="487">«preserve»</text>
    <line
       transform="translate(-155.45881,-56.023898)"
       style="font-style:italic;fill:none;stroke:#808080;stroke-width:1.10000002;stroke-linecap:butt;font-family:Segoe UI"
       id="line1201"
       y2="229"
       y1="226"
       x2="483"
       x1="490"
       clip-path="url(#clipPath176)" />
    <line
       transform="translate(-155.45881,-56.023898)"
       style="font-style:italic;fill:none;stroke:#808080;stroke-width:1.10000002;stroke-linecap:butt;font-family:Segoe UI"
       id="line1203"
       y2="232"
       y1="229"
       x2="490"
       x1="483"
       clip-path="url(#clipPath176)" />
    <line
       transform="translate(-155.45881,-56.023898)"
       style="font-style:italic;fill:none;stroke:#808080;stroke-width:1.10000002;stroke-linecap:butt;font-family:Segoe UI"
       id="line1361"
       y2="147"
       y1="147"
       x2="484"
       x1="547"
       clip-path="url(#clipPath173)" />
    <text
       transform="translate(-155.4217,-56.023898)"
       style="font-style:normal;stroke:none;font-family:Segoe UI"
       id="text1363"
       xml:space="preserve"
       font-style="normal"
       clip-path="url(#clipPath220)"
       y="166"
       x="503">objA</text>
    <text
       transform="translate(-155.45881,-56.023898)"
       style="font-style:normal;fill:#808080;stroke:none;font-family:Segoe UI"
       id="text1365"
       xml:space="preserve"
       font-style="normal"
       clip-path="url(#clipPath221)"
       y="139"
       x="487">«preserve»</text>
    <line
       transform="translate(-155.45881,-56.023898)"
       style="font-style:italic;fill:none;stroke:#808080;stroke-width:1.10000002;stroke-linecap:butt;font-family:Segoe UI"
       id="line1367"
       y2="147"
       y1="144"
       x2="484"
       x1="491"
       clip-path="url(#clipPath222)" />
    <line
       transform="translate(-155.45881,-56.023898)"
       style="font-style:italic;fill:none;stroke:#808080;stroke-width:1.10000002;stroke-linecap:butt;font-family:Segoe UI"
       id="line1369"
       y2="150"
       y1="147"
       x2="491"
       x1="484"
       clip-path="url(#clipPath222)" />
    <line
       transform="translate(-160.46897,-56.528974)"
       style="font-style:italic;fill:none;stroke:#808080;stroke-width:1.10000002;stroke-linecap:butt;font-family:Segoe UI"
       id="line1371"
       y2="208"
       y1="168"
       x2="759"
       x1="759"
       clip-path="url(#clipPath173)" />
    <text
       style="font-style:normal;fill:#808080;stroke:none;font-family:Segoe UI"
       id="text1375"
       xml:space="preserve"
       font-style="normal"
       clip-path="url(#clipPath224)"
       y="185"
       x="770"
       transform="translate(-232.46897,-57.498518)">«preserve»</text>
    <line
       transform="translate(-160.46897,-56.528974)"
       style="font-style:italic;fill:none;stroke:#808080;stroke-width:1.10000002;stroke-linecap:butt;font-family:Segoe UI"
       id="line1377"
       y2="208"
       y1="201"
       x2="759"
       x1="756"
       clip-path="url(#clipPath225)" />
    <line
       transform="translate(-160.46897,-56.528974)"
       style="font-style:italic;fill:none;stroke:#808080;stroke-width:1.10000002;stroke-linecap:butt;font-family:Segoe UI"
       id="line1379"
       y2="201"
       y1="208"
       x2="762"
       x1="759"
       clip-path="url(#clipPath225)" />
    <line
       transform="translate(-155.96389,-56.023898)"
       style="font-style:italic;fill:none;stroke:#808080;stroke-width:1.10000002;stroke-linecap:butt;font-family:Segoe UI"
       id="line1423"
       y2="147"
       y1="147"
       x2="723"
       x1="656"
       clip-path="url(#clipPath173)" />
    <text
       transform="translate(-155.75666,-56.023898)"
       style="font-style:normal;stroke:none;font-family:Segoe UI"
       id="text1425"
       xml:space="preserve"
       font-style="normal"
       clip-path="url(#clipPath238)"
       y="166"
       x="678">objB</text>
    <text
       transform="translate(-155.45881,-56.023898)"
       style="font-style:normal;fill:#808080;stroke:none;font-family:Segoe UI"
       id="text1427"
       xml:space="preserve"
       font-style="normal"
       clip-path="url(#clipPath239)"
       y="139"
       x="661">«preserve»</text>
    <line
       transform="translate(-155.45881,-56.023898)"
       style="font-style:italic;fill:none;stroke:#808080;stroke-width:1.10000002;stroke-linecap:butt;font-family:Segoe UI"
       id="line1429"
       y2="147"
       y1="150"
       x2="723"
       x1="716"
       clip-path="url(#clipPath240)" />
    <line
       transform="translate(-155.45881,-56.023898)"
       style="font-style:italic;fill:none;stroke:#808080;stroke-width:1.10000002;stroke-linecap:butt;font-family:Segoe UI"
       id="line1431"
       y2="144"
       y1="147"
       x2="716"
       x1="723"
       clip-path="url(#clipPath240)" />
    <line
       transform="translate(-155.96389,-56.023898)"
       style="font-style:italic;fill:none;stroke:#808080;stroke-width:1.10000002;stroke-linecap:butt;font-family:Segoe UI"
       id="line1433"
       y2="229"
       y1="229"
       x2="724"
       x1="656"
       clip-path="url(#clipPath173)" />
    <text
       transform="translate(-156.75666,-56.023898)"
       style="font-style:normal;stroke:none;font-family:Segoe UI"
       id="text1435"
       xml:space="preserve"
       font-style="normal"
       clip-path="url(#clipPath241)"
       y="248"
       x="678">objB</text>
    <text
       transform="translate(-155.45881,-56.023898)"
       style="font-style:normal;fill:#808080;stroke:none;font-family:Segoe UI"
       id="text1437"
       xml:space="preserve"
       font-style="normal"
       clip-path="url(#clipPath242)"
       y="221"
       x="660">«preserve»</text>
    <line
       transform="translate(-155.45881,-56.023898)"
       style="font-style:italic;fill:none;stroke:#808080;stroke-width:1.10000002;stroke-linecap:butt;font-family:Segoe UI"
       id="line1439"
       y2="229"
       y1="232"
       x2="724"
       x1="717"
       clip-path="url(#clipPath243)" />
    <line
       transform="translate(-155.45881,-56.023898)"
       style="font-style:italic;fill:none;stroke:#808080;stroke-width:1.10000002;stroke-linecap:butt;font-family:Segoe UI"
       id="line1441"
       y2="226"
       y1="229"
       x2="717"
       x1="724"
       clip-path="url(#clipPath243)" />
    <line
       transform="translate(-148.86175,-56.528974)"
       style="font-style:italic;fill:none;stroke:#808080;stroke-width:1.10000002;stroke-linecap:butt;font-family:Segoe UI"
       id="line1465"
       y2="208"
       y1="168"
       x2="447"
       x1="447"
       clip-path="url(#clipPath173)" />
    <text
       transform="translate(-82.861742,-57.498518)"
       style="font-style:normal;fill:#808080;stroke:none;font-family:Segoe UI"
       id="text1469"
       xml:space="preserve"
       font-style="normal"
       clip-path="url(#clipPath251)"
       y="185"
       x="385">«preserve»</text>
    <line
       transform="translate(-148.86175,-56.528974)"
       style="font-style:italic;fill:none;stroke:#808080;stroke-width:1.10000002;stroke-linecap:butt;font-family:Segoe UI"
       id="line1471"
       y2="208"
       y1="201"
       x2="447"
       x1="444"
       clip-path="url(#clipPath252)" />
    <line
       transform="translate(-148.86175,-56.528974)"
       style="font-style:italic;fill:none;stroke:#808080;stroke-width:1.10000002;stroke-linecap:butt;font-family:Segoe UI"
       id="line1473"
       y2="201"
       y1="208"
       x2="450"
       x1="447"
       clip-path="url(#clipPath252)" />
    <line
       transform="translate(-160.46897,-56.528974)"
       style="font-style:italic;fill:none;stroke:#808080;stroke-width:1.10000002;stroke-linecap:butt;font-family:Segoe UI"
       id="line1495"
       y2="208"
       y1="168"
       x2="759"
       x1="759"
       clip-path="url(#clipPath173)" />
    <line
       transform="translate(-160.46897,-56.528974)"
       style="font-style:italic;fill:none;stroke:#808080;stroke-width:1.10000002;stroke-linecap:butt;font-family:Segoe UI"
       id="line1501"
       y2="208"
       y1="201"
       x2="759"
       x1="756"
       clip-path="url(#clipPath225)" />
    <line
       transform="translate(-160.46897,-56.528974)"
       style="font-style:italic;fill:none;stroke:#808080;stroke-width:1.10000002;stroke-linecap:butt;font-family:Segoe UI"
       id="line1503"
       y2="201"
       y1="208"
       x2="762"
       x1="759"
       clip-path="url(#clipPath225)" />
    <line
       transform="translate(-148.86175,-56.528974)"
       style="font-style:italic;fill:none;stroke:#808080;stroke-width:1.10000002;stroke-linecap:butt;font-family:Segoe UI"
       id="line1525"
       y2="208"
       y1="168"
       x2="447"
       x1="447"
       clip-path="url(#clipPath173)" />
    <line
       transform="translate(-148.86175,-56.528974)"
       style="font-style:italic;fill:none;stroke:#808080;stroke-width:1.10000002;stroke-linecap:butt;font-family:Segoe UI"
       id="line1531"
       y2="208"
       y1="201"
       x2="447"
       x1="444"
       clip-path="url(#clipPath252)" />
    <line
       transform="translate(-148.86175,-56.528974)"
       style="font-style:italic;fill:none;stroke:#808080;stroke-width:1.10000002;stroke-linecap:butt;font-family:Segoe UI"
       id="line1533"
       y2="201"
       y1="208"
       x2="450"
       x1="447"
       clip-path="url(#clipPath252)" />
    <text
       xml:space="preserve"
       style="font-size:40px;font-style:normal;font-weight:normal;line-height:125%;letter-spacing:0px;word-spacing:0px;fill:#000000;fill-opacity:1;stroke:none;font-family:Sans"
       x="319.88632"
       y="142.50752"
       id="text5228"
       sodipodi:linespacing="125%"><tspan
         sodipodi:role="line"
         id="tspan5230"
         x="319.88632"
         y="142.50752"
         style="font-size:12px;font-style:normal;font-variant:normal;font-weight:normal;font-stretch:normal;font-family:Segoe UI;-inkscape-font-specification:Segoe UI">refY</tspan></text>
    <text
       xml:space="preserve"
       style="font-size:40px;font-style:normal;font-weight:normal;line-height:125%;letter-spacing:0px;word-spacing:0px;fill:#000000;fill-opacity:1;stroke:none;font-family:Sans"
       x="555.27905"
       y="142.50752"
       id="text5228-3"
       sodipodi:linespacing="125%"><tspan
         sodipodi:role="line"
         id="tspan5230-9"
         x="555.27905"
         y="142.50752"
         style="font-size:12px;font-style:normal;font-variant:normal;font-weight:normal;font-stretch:normal;font-family:Segoe UI;-inkscape-font-specification:Segoe UI">refY</tspan></text>
    <rect
       transform="matrix(0.85980658,0,0,0.99501437,-613.36189,-236.96053)"
       style="font-style:italic;fill:none;stroke:#808080;stroke-width:1.10000002;stroke-linecap:butt;font-family:Segoe UI"
       id="rect1001"
       height="41"
       width="73"
       clip-path="url(#clipPath92)"
       y="309"
       x="896" />
    <text
       transform="translate(-738.83674,-239.11687)"
       style="font-style:normal;fill:#808080;stroke:none;font-family:Segoe UI"
       id="text1003"
       xml:space="preserve"
       font-style="normal"
       clip-path="url(#clipPath93)"
       y="322"
       x="898">«preserve»</text>
    <text
       transform="translate(-738.83674,-239.11687)"
       style="font-style:normal;stroke:none;font-family:Segoe UI"
       id="text1005"
       xml:space="preserve"
       font-style="normal"
       clip-path="url(#clipPath94)"
       y="337"
       x="898">E1:ClassX</text>
    <line
       transform="matrix(0.85118482,0,0,0.99501437,-605.64542,-236.96053)"
       style="font-style:italic;fill:none;stroke:#808080;stroke-width:1.10000002;stroke-linecap:butt;font-family:Segoe UI"
       id="line1007"
       y2="339"
       y1="339"
       x2="970"
       x1="896"
       clip-path="url(#clipPath95)" />
    <rect
       transform="matrix(0.85980658,0,0,0.99501437,-613.36189,-236.96053)"
       style="font-style:italic;fill:none;stroke:#808080;stroke-width:1.10000002;stroke-linecap:butt;font-family:Segoe UI"
       id="rect1011"
       height="41"
       width="70"
       clip-path="url(#clipPath96)"
       y="391"
       x="897" />
    <text
       transform="translate(-738.83674,-239.11687)"
       style="font-style:normal;fill:#808080;stroke:none;font-family:Segoe UI"
       id="text1013"
       xml:space="preserve"
       font-style="normal"
       clip-path="url(#clipPath97)"
       y="404"
       x="899">«preserve»</text>
    <text
       transform="translate(-738.83674,-239.11687)"
       style="font-style:normal;stroke:none;font-family:Segoe UI"
       id="text1015"
       xml:space="preserve"
       font-style="normal"
       clip-path="url(#clipPath98)"
       y="419"
       x="899">E2:ClassY</text>
    <line
       transform="matrix(0.84633923,0,0,0.99501437,-601.29514,-236.96053)"
       style="font-style:italic;fill:none;stroke:#808080;stroke-width:1.10000002;stroke-linecap:butt;font-family:Segoe UI"
       id="line1017"
       y2="421"
       y1="421"
       x2="968"
       x1="897"
       clip-path="url(#clipPath99)" />
    <line
       transform="translate(-743.8469,-239.62195)"
       style="font-style:italic;fill:none;stroke:#808080;stroke-width:1.10000002;stroke-linecap:butt;font-family:Segoe UI"
       id="line1293"
       y2="391"
       y1="351"
       x2="932"
       x1="932"
       clip-path="url(#clipPath173-7)" />
    <text
       style="font-style:normal;fill:#808080;stroke:none;font-family:Segoe UI"
       id="text1297"
       xml:space="preserve"
       font-style="normal"
       clip-path="url(#clipPath202)"
       y="369"
       x="941"
       transform="translate(-749.8469,-241.4985)">«preserve»</text>
    <line
       transform="translate(-743.8469,-239.62195)"
       style="font-style:italic;fill:none;stroke:#808080;stroke-width:1.10000002;stroke-linecap:butt;font-family:Segoe UI"
       id="line1299"
       y2="391"
       y1="384"
       x2="932"
       x1="929"
       clip-path="url(#clipPath203)" />
    <line
       transform="translate(-743.8469,-239.62195)"
       style="font-style:italic;fill:none;stroke:#808080;stroke-width:1.10000002;stroke-linecap:butt;font-family:Segoe UI"
       id="line1301"
       y2="384"
       y1="391"
       x2="935"
       x1="932"
       clip-path="url(#clipPath203)" />
    <text
       xml:space="preserve"
       style="font-size:40px;font-style:normal;font-weight:normal;line-height:125%;letter-spacing:0px;word-spacing:0px;fill:#000000;fill-opacity:1;stroke:none;font-family:Sans"
       x="208.90114"
       y="142.50752"
       id="text5228-9"
       sodipodi:linespacing="125%"><tspan
         sodipodi:role="line"
         id="tspan5230-4"
         x="208.90114"
         y="142.50752"
         style="font-size:12px;font-style:normal;font-variant:normal;font-weight:normal;font-stretch:normal;font-family:Segoe UI;-inkscape-font-specification:Segoe UI">refY</tspan></text>
    <g
       id="1-1-1"
       transform="matrix(0.12249098,0,0,0.12249098,18.652247,88.011979)">
      <path
         d="m 1713.2,614.4 124,0 -11.6,11.6 0,-94.2 139.5,157.8 -139.5,157.9 0,-94.3 11.6,11.6 -124,0 0,-150.4 z m 23.2,138.8 -11.6,-11.6 124,0 0,75.2 -20.2,-7.6 112.4,-127.2 0,15.3 -112.4,-127.2 20.2,-7.7 0,75.2 -124,0 11.6,-11.6 0,127.2 z"
         style="fill:#000000;fill-opacity:1;fill-rule:nonzero;stroke:#000000;stroke-width:0.1px;stroke-linecap:butt;stroke-linejoin:round;stroke-opacity:1;stroke-dasharray:none"
         id="2-7-7"
         inkscape:connector-curvature="0" />
    </g>
    <g
       id="1-1-1-1"
       transform="matrix(0.12249098,0,0,0.12249098,18.652247,6.4208006)">
      <path
         d="m 1713.2,614.4 124,0 -11.6,11.6 0,-94.2 139.5,157.8 -139.5,157.9 0,-94.3 11.6,11.6 -124,0 0,-150.4 z m 23.2,138.8 -11.6,-11.6 124,0 0,75.2 -20.2,-7.6 112.4,-127.2 0,15.3 -112.4,-127.2 20.2,-7.7 0,75.2 -124,0 11.6,-11.6 0,127.2 z"
         style="fill:#000000;fill-opacity:1;fill-rule:nonzero;stroke:#000000;stroke-width:0.1px;stroke-linecap:butt;stroke-linejoin:round;stroke-opacity:1;stroke-dasharray:none"
         id="2-7-7-7"
         inkscape:connector-curvature="0" />
    </g>
    <g
       id="1-1-1-4"
       transform="matrix(0.12249098,0,0,0.12249098,46.451745,46.922466)">
      <path
         d="m 1713.2,614.4 124,0 -11.6,11.6 0,-94.2 139.5,157.8 -139.5,157.9 0,-94.3 11.6,11.6 -124,0 0,-150.4 z m 23.2,138.8 -11.6,-11.6 124,0 0,75.2 -20.2,-7.6 112.4,-127.2 0,15.3 -112.4,-127.2 20.2,-7.7 0,75.2 -124,0 11.6,-11.6 0,127.2 z"
         style="fill:#000000;fill-opacity:1;fill-rule:nonzero;stroke:#000000;stroke-width:0.1px;stroke-linecap:butt;stroke-linejoin:round;stroke-opacity:1;stroke-dasharray:none"
         id="2-7-7-0"
         inkscape:connector-curvature="0" />
    </g>
  </g>
</svg>
