<?xml version="1.0" encoding="UTF-8" standalone="no"?>
<!-- Created with Inkscape (http://www.inkscape.org/) -->

<svg
   xmlns:dc="http://purl.org/dc/elements/1.1/"
   xmlns:cc="http://creativecommons.org/ns#"
   xmlns:rdf="http://www.w3.org/1999/02/22-rdf-syntax-ns#"
   xmlns:svg="http://www.w3.org/2000/svg"
   xmlns="http://www.w3.org/2000/svg"
   xmlns:sodipodi="http://sodipodi.sourceforge.net/DTD/sodipodi-0.dtd"
   xmlns:inkscape="http://www.inkscape.org/namespaces/inkscape"
   width="210mm"
   height="297mm"
   id="svg6577"
   version="1.1"
   inkscape:version="0.48.1 "
   sodipodi:docname="pattern_add_object.svg"
   inkscape:export-filename="E:\Workspace\Bachelorarbeit\source\images\pattern_add_object.png"
   inkscape:export-xdpi="300"
   inkscape:export-ydpi="300">
  <defs
     id="defs6579">
    <clipPath
       clipPathUnits="userSpaceOnUse"
       id="clipPath228">
      <path
         inkscape:connector-curvature="0"
         d="m 715,301 10,0 0,9 -10,0 0,-9 z"
         id="path695" />
    </clipPath>
    <clipPath
       clipPathUnits="userSpaceOnUse"
       id="clipPath6597">
      <path
         inkscape:connector-curvature="0"
         d="m 715,301 10,0 0,9 -10,0 0,-9 z"
         id="path6599" />
    </clipPath>
    <clipPath
       clipPathUnits="userSpaceOnUse"
       id="clipPath173">
      <path
         inkscape:connector-curvature="0"
         d="m -1,-1 1341,0 0,858 -1341,0 0,-858 z"
         id="path530" />
    </clipPath>
    <clipPath
       clipPathUnits="userSpaceOnUse"
       id="clipPath6603">
      <path
         inkscape:connector-curvature="0"
         d="m 715,301 10,0 0,9 -10,0 0,-9 z"
         id="path6605" />
    </clipPath>
    <clipPath
       clipPathUnits="userSpaceOnUse"
       id="clipPath6607">
      <path
         inkscape:connector-curvature="0"
         d="m 715,301 10,0 0,9 -10,0 0,-9 z"
         id="path6609" />
    </clipPath>
    <clipPath
       clipPathUnits="userSpaceOnUse"
       id="clipPath227">
      <path
         inkscape:connector-curvature="0"
         d="m 660,283 59,0 0,17 -59,0 0,-17 z"
         id="path692" />
    </clipPath>
    <clipPath
       clipPathUnits="userSpaceOnUse"
       id="clipPath226">
      <path
         inkscape:connector-curvature="0"
         d="m 681,310 19,0 0,17 -19,0 0,-17 z"
         id="path689" />
    </clipPath>
    <clipPath
       clipPathUnits="userSpaceOnUse"
       id="clipPath6615">
      <path
         inkscape:connector-curvature="0"
         d="m -1,-1 1341,0 0,858 -1341,0 0,-858 z"
         id="path6617" />
    </clipPath>
    <clipPath
       clipPathUnits="userSpaceOnUse"
       id="clipPath35">
      <path
         inkscape:connector-curvature="0"
         d="m 722,313 76,0 0,14 -76,0 0,-14 z"
         id="path116" />
    </clipPath>
    <clipPath
       clipPathUnits="userSpaceOnUse"
       id="clipPath34">
      <path
         inkscape:connector-curvature="0"
         d="m 724,298 72,0 0,17 -72,0 0,-17 z"
         id="path113" />
    </clipPath>
    <clipPath
       clipPathUnits="userSpaceOnUse"
       id="clipPath33">
      <path
         inkscape:connector-curvature="0"
         d="m 724,283 59,0 0,17 -59,0 0,-17 z"
         id="path110" />
    </clipPath>
    <clipPath
       clipPathUnits="userSpaceOnUse"
       id="clipPath32">
      <path
         inkscape:connector-curvature="0"
         d="m 722,283 76,0 0,44 -76,0 0,-44 z"
         id="path107" />
    </clipPath>
    <clipPath
       clipPathUnits="userSpaceOnUse"
       id="clipPath6627">
      <path
         inkscape:connector-curvature="0"
         d="m 722,283 76,0 0,44 -76,0 0,-44 z"
         id="path6629" />
    </clipPath>
    <clipPath
       clipPathUnits="userSpaceOnUse"
       id="clipPath31">
      <path
         inkscape:connector-curvature="0"
         d="m 590,313 67,0 0,14 -67,0 0,-14 z"
         id="path104" />
    </clipPath>
    <clipPath
       clipPathUnits="userSpaceOnUse"
       id="clipPath30">
      <path
         inkscape:connector-curvature="0"
         d="m 592,298 63,0 0,17 -63,0 0,-17 z"
         id="path101" />
    </clipPath>
    <clipPath
       clipPathUnits="userSpaceOnUse"
       id="clipPath29">
      <path
         inkscape:connector-curvature="0"
         d="m 592,283 59,0 0,17 -59,0 0,-17 z"
         id="path98" />
    </clipPath>
    <clipPath
       clipPathUnits="userSpaceOnUse"
       id="clipPath28">
      <path
         inkscape:connector-curvature="0"
         d="m 590,283 67,0 0,44 -67,0 0,-44 z"
         id="path95" />
    </clipPath>
    <clipPath
       clipPathUnits="userSpaceOnUse"
       id="clipPath6639">
      <path
         inkscape:connector-curvature="0"
         d="m 590,283 67,0 0,44 -67,0 0,-44 z"
         id="path6641" />
    </clipPath>
    <clipPath
       clipPathUnits="userSpaceOnUse"
       id="clipPath123">
      <path
         inkscape:connector-curvature="0"
         d="m 1022,494 103,0 0,14 -103,0 0,-14 z"
         id="path380" />
    </clipPath>
    <clipPath
       clipPathUnits="userSpaceOnUse"
       id="clipPath122">
      <path
         inkscape:connector-curvature="0"
         d="m 1024,479 99,0 0,17 -99,0 0,-17 z"
         id="path377" />
    </clipPath>
    <clipPath
       clipPathUnits="userSpaceOnUse"
       id="clipPath121">
      <path
         inkscape:connector-curvature="0"
         d="m 1024,464 47,0 0,17 -47,0 0,-17 z"
         id="path374" />
    </clipPath>
    <clipPath
       clipPathUnits="userSpaceOnUse"
       id="clipPath120">
      <path
         inkscape:connector-curvature="0"
         d="m 1022,464 103,0 0,44 -103,0 0,-44 z"
         id="path371" />
    </clipPath>
    <clipPath
       clipPathUnits="userSpaceOnUse"
       id="clipPath6792">
      <path
         inkscape:connector-curvature="0"
         d="m 1022,464 103,0 0,44 -103,0 0,-44 z"
         id="path6794" />
    </clipPath>
  </defs>
  <sodipodi:namedview
     id="base"
     pagecolor="#ffffff"
     bordercolor="#666666"
     borderopacity="1.0"
     inkscape:pageopacity="1"
     inkscape:pageshadow="2"
     inkscape:zoom="3.959798"
     inkscape:cx="320.24346"
     inkscape:cy="910.27038"
     inkscape:document-units="px"
     inkscape:current-layer="g6850"
     showgrid="false"
     inkscape:window-width="1920"
     inkscape:window-height="1018"
     inkscape:window-x="-8"
     inkscape:window-y="-8"
     inkscape:window-maximized="1" />
  <metadata
     id="metadata6582">
    <rdf:RDF>
      <cc:Work
         rdf:about="">
        <dc:format>image/svg+xml</dc:format>
        <dc:type
           rdf:resource="http://purl.org/dc/dcmitype/StillImage" />
        <dc:title></dc:title>
      </cc:Work>
    </rdf:RDF>
  </metadata>
  <g
     inkscape:label="Ebene 1"
     inkscape:groupmode="layer"
     id="layer1">
    <g
       id="g6843">
      <rect
         x="591"
         y="284"
         clip-path="url(#clipPath28)"
         width="64"
         height="41"
         id="rect843"
         style="font-style:italic;fill:none;stroke:#808080;stroke-width:1.10000002;stroke-linecap:butt;font-family:Segoe UI"
         transform="translate(-308.28572,-178.48921)" />
      <text
         x="593"
         y="297"
         clip-path="url(#clipPath29)"
         font-style="normal"
         xml:space="preserve"
         id="text845"
         style="font-style:normal;fill:#808080;stroke:none;font-family:Segoe UI"
         transform="translate(-308.28572,-178.48921)">«preserve»</text>
      <text
         x="593"
         y="312"
         clip-path="url(#clipPath30)"
         font-style="normal"
         xml:space="preserve"
         id="text847"
         style="font-style:normal;stroke:none;font-family:Segoe UI"
         transform="translate(-308.28572,-180.04276)">:AddObject</text>
      <line
         clip-path="url(#clipPath31)"
         x1="591"
         x2="656"
         y1="314"
         y2="314"
         id="line849"
         style="font-style:italic;fill:none;stroke:#808080;stroke-width:1.10000002;stroke-linecap:butt;font-family:Segoe UI"
         transform="matrix(0.99195066,0,0,1,-303.53661,-178.48921)" />
    </g>
    <g
       id="g6850">
      <rect
         x="723"
         y="284"
         clip-path="url(#clipPath32)"
         width="73"
         height="41"
         id="rect853"
         style="font-style:italic;fill:none;stroke:#808080;stroke-width:1.10000002;stroke-linecap:butt;font-family:Segoe UI"
         transform="matrix(0.85113691,0,0,1.002052,-200.69977,-179.11404)" />
      <text
         x="725"
         y="297"
         clip-path="url(#clipPath33)"
         font-style="normal"
         xml:space="preserve"
         id="text855"
         style="font-style:normal;fill:#808080;stroke:none;font-family:Segoe UI"
         transform="translate(-308.28572,-178.48921)">«preserve»</text>
      <text
         x="725"
         y="312"
         clip-path="url(#clipPath34)"
         font-style="normal"
         xml:space="preserve"
         id="text857"
         style="font-style:normal;stroke:none;font-family:Segoe UI"
         transform="translate(-308.28572,-178.48921)">B:ClassX</text>
      <line
         clip-path="url(#clipPath35)"
         x1="723"
         x2="797"
         y1="314"
         y2="314"
         id="line859"
         style="font-style:italic;fill:none;stroke:#808080;stroke-width:1.10000002;stroke-linecap:butt;font-family:Segoe UI"
         transform="matrix(0.8464128,0,0,1.002052,-197.28896,-179.11404)" />
    </g>
    <g
       id="g6857">
      <line
         clip-path="url(#clipPath173)"
         x1="656"
         x2="723"
         y1="305"
         y2="305"
         id="line1381"
         style="font-style:italic;fill:none;stroke:#808080;stroke-width:1.10000002;stroke-linecap:butt;font-family:Segoe UI"
         transform="translate(-308.28572,-178.48921)" />
      <text
         x="682"
         y="324"
         clip-path="url(#clipPath226)"
         font-style="normal"
         xml:space="preserve"
         id="text1383"
         style="font-style:normal;stroke:none;font-family:Segoe UI"
         transform="translate(-308.28572,-182.48921)">obj</text>
      <text
         x="661"
         y="297"
         clip-path="url(#clipPath227)"
         font-style="normal"
         xml:space="preserve"
         id="text1385"
         style="font-style:normal;fill:#808080;stroke:none;font-family:Segoe UI"
         transform="translate(-308.28572,-178.48921)">«preserve»</text>
      <line
         clip-path="url(#clipPath228)"
         x1="716"
         x2="723"
         y1="308"
         y2="305"
         id="line1387"
         style="font-style:italic;fill:none;stroke:#808080;stroke-width:1.10000002;stroke-linecap:butt;font-family:Segoe UI"
         transform="translate(-308.28572,-178.48921)" />
      <line
         clip-path="url(#clipPath228)"
         x1="723"
         x2="716"
         y1="305"
         y2="302"
         id="line1389"
         style="font-style:italic;fill:none;stroke:#808080;stroke-width:1.10000002;stroke-linecap:butt;font-family:Segoe UI"
         transform="translate(-308.28572,-178.48921)" />
      <line
         clip-path="url(#clipPath173)"
         x1="656"
         x2="723"
         y1="305"
         y2="305"
         id="line1535"
         style="font-style:italic;fill:none;stroke:#808080;stroke-width:1.10000002;stroke-linecap:butt;font-family:Segoe UI"
         transform="translate(-308.28572,-178.48921)" />
      <line
         clip-path="url(#clipPath228)"
         x1="716"
         x2="723"
         y1="308"
         y2="305"
         id="line1541"
         style="font-style:italic;fill:none;stroke:#808080;stroke-width:1.10000002;stroke-linecap:butt;font-family:Segoe UI"
         transform="translate(-308.28572,-178.48921)" />
      <line
         clip-path="url(#clipPath228)"
         x1="723"
         x2="716"
         y1="305"
         y2="302"
         id="line1543"
         style="font-style:italic;fill:none;stroke:#808080;stroke-width:1.10000002;stroke-linecap:butt;font-family:Segoe UI"
         transform="translate(-308.28572,-178.48921)" />
    </g>
    <g
       id="g6836"
       transform="translate(-12,0.46757014)">
      <rect
         x="1023"
         y="465"
         clip-path="url(#clipPath120)"
         width="100"
         height="41"
         id="rect1071"
         style="font-style:italic;fill:none;stroke:#00c800;stroke-width:1.10000002;stroke-linecap:butt;font-family:Segoe UI"
         transform="matrix(0.62502937,0,0,1.0054975,-445.55744,-363.43599)" />
      <text
         x="1025"
         y="478"
         clip-path="url(#clipPath121)"
         font-style="normal"
         xml:space="preserve"
         id="text1073"
         style="font-style:normal;fill:#00c800;stroke:none;font-family:Segoe UI"
         transform="translate(-829.03842,-360.76565)">«create»</text>
      <text
         x="1025"
         y="493"
         clip-path="url(#clipPath122)"
         font-style="normal"
         xml:space="preserve"
         id="text1075"
         style="font-style:normal;stroke:none;font-family:Segoe UI"
         transform="translate(-829.03842,-360.76565)">E:ClassX</text>
      <line
         clip-path="url(#clipPath123)"
         x1="1023"
         x2="1124"
         y1="495"
         y2="495"
         id="line1077"
         style="font-style:italic;fill:none;stroke:#00c800;stroke-width:1.10000002;stroke-linecap:butt;font-family:Segoe UI"
         transform="matrix(0.6163355,0,0,1.0054975,-436.67231,-363.43599)" />
    </g>
    <g
       id="1-1-1"
       transform="matrix(0.12249098,0,0,0.12249098,38.641697,40.724712)">
      <path
         d="m 1713.2,614.4 124,0 -11.6,11.6 0,-94.2 139.5,157.8 -139.5,157.9 0,-94.3 11.6,11.6 -124,0 0,-150.4 z m 23.2,138.8 -11.6,-11.6 124,0 0,75.2 -20.2,-7.6 112.4,-127.2 0,15.3 -112.4,-127.2 20.2,-7.7 0,75.2 -124,0 11.6,-11.6 0,127.2 z"
         style="fill:#000000;fill-opacity:1;fill-rule:nonzero;stroke:#000000;stroke-width:0.1px;stroke-linecap:butt;stroke-linejoin:round;stroke-opacity:1;stroke-dasharray:none"
         id="2-7-7"
         inkscape:connector-curvature="0" />
    </g>
  </g>
</svg>
