<?xml version="1.0" encoding="UTF-8"?><svg xmlns="http://www.w3.org/2000/svg" xmlns:xlink="http://www.w3.org/1999/xlink" stroke-dasharray="none" shape-rendering="auto" font-family="'Dialog'" width="512" text-rendering="auto" fill-opacity="1" contentScriptType="text/ecmascript" color-interpolation="auto" color-rendering="auto" preserveAspectRatio="xMidYMid meet" font-size="12" viewBox="0 0 512 287" fill="black" stroke="black" image-rendering="auto" stroke-miterlimit="10" zoomAndPan="magnify" version="1.0" stroke-linecap="square" stroke-linejoin="miter" contentStyleType="text/css" font-style="normal" height="287" stroke-width="1" stroke-dashoffset="0" font-weight="normal" stroke-opacity="1">
<!--Generated by the Batik Graphics2D SVG Generator-->
<defs id="genericDefs"/>
<g>
<defs id="defs1">
<linearGradient x1="10" x2="10" y1="10" gradientUnits="userSpaceOnUse" y2="277" xlink:type="simple" xlink:actuate="onLoad" id="linearGradient1" xlink:show="other" spreadMethod="pad">
<stop stop-opacity="1" stop-color="white" offset="0%"/>
<stop stop-opacity="1" stop-color="white" offset="100%"/>
</linearGradient>
<clipPath clipPathUnits="userSpaceOnUse" id="clipPath1">
<path d="M9 9 L503 9 L503 278 L9 278 L9 9 Z"/>
</clipPath>
<clipPath clipPathUnits="userSpaceOnUse" id="clipPath2">
<path d="M10 10 L105 10 L105 33 L10 33 L10 10 Z"/>
</clipPath>
<clipPath clipPathUnits="userSpaceOnUse" id="clipPath3">
<path d="M13 13 L90 13 L90 30 L13 30 L13 13 Z"/>
</clipPath>
<clipPath clipPathUnits="userSpaceOnUse" id="clipPath4">
<path d="M10 31 L502 31 L502 277 L10 277 L10 31 Z"/>
</clipPath>
<clipPath clipPathUnits="userSpaceOnUse" id="clipPath5">
<path d="M28 52 L130 52 L130 264 L28 264 L28 52 Z"/>
</clipPath>
<clipPath clipPathUnits="userSpaceOnUse" id="clipPath6">
<path d="M28 52 L130 52 L130 84 L28 84 L28 52 Z"/>
</clipPath>
<clipPath clipPathUnits="userSpaceOnUse" id="clipPath7">
<path d="M66 59 L92 59 L92 76 L66 76 L66 59 Z"/>
</clipPath>
<clipPath clipPathUnits="userSpaceOnUse" id="clipPath8">
<path d="M28 82 L130 82 L130 264 L28 264 L28 82 Z"/>
</clipPath>
<clipPath clipPathUnits="userSpaceOnUse" id="clipPath9">
<path d="M70 98 L88 98 L88 133 L70 133 L70 98 Z"/>
</clipPath>
<clipPath clipPathUnits="userSpaceOnUse" id="clipPath10">
<path d="M70 164 L88 164 L88 216 L70 216 L70 164 Z"/>
</clipPath>
<clipPath clipPathUnits="userSpaceOnUse" id="clipPath11">
<path d="M164 52 L299 52 L299 264 L164 264 L164 52 Z"/>
</clipPath>
<clipPath clipPathUnits="userSpaceOnUse" id="clipPath12">
<path d="M164 52 L299 52 L299 84 L164 84 L164 52 Z"/>
</clipPath>
<clipPath clipPathUnits="userSpaceOnUse" id="clipPath13">
<path d="M191 59 L271 59 L271 76 L191 76 L191 59 Z"/>
</clipPath>
<clipPath clipPathUnits="userSpaceOnUse" id="clipPath14">
<path d="M164 82 L299 82 L299 264 L164 264 L164 82 Z"/>
</clipPath>
<clipPath clipPathUnits="userSpaceOnUse" id="clipPath15">
<path d="M222 98 L240 98 L240 162 L222 162 L222 98 Z"/>
</clipPath>
<clipPath clipPathUnits="userSpaceOnUse" id="clipPath16">
<path d="M222 164 L240 164 L240 216 L222 216 L222 164 Z"/>
</clipPath>
<clipPath clipPathUnits="userSpaceOnUse" id="clipPath17">
<path d="M332 99 L472 99 L472 264 L332 264 L332 99 Z"/>
</clipPath>
<clipPath clipPathUnits="userSpaceOnUse" id="clipPath18">
<path d="M332 99 L472 99 L472 131 L332 131 L332 99 Z"/>
</clipPath>
<clipPath clipPathUnits="userSpaceOnUse" id="clipPath19">
<path d="M352 106 L451 106 L451 123 L352 123 L352 106 Z"/>
</clipPath>
<clipPath clipPathUnits="userSpaceOnUse" id="clipPath20">
<path d="M332 129 L472 129 L472 264 L332 264 L332 129 Z"/>
</clipPath>
<clipPath clipPathUnits="userSpaceOnUse" id="clipPath21">
<path d="M393 141 L411 141 L411 174 L393 174 L393 141 Z"/>
</clipPath>
<clipPath clipPathUnits="userSpaceOnUse" id="clipPath22">
<path d="M393 182 L411 182 L411 234 L393 234 L393 182 Z"/>
</clipPath>
<clipPath clipPathUnits="userSpaceOnUse" id="clipPath23">
<path d="M15 36 L497 36 L497 272 L15 272 L15 36 Z"/>
</clipPath>
<clipPath clipPathUnits="userSpaceOnUse" id="clipPath24">
<path d="M-1 -1 L513 -1 L513 288 L-1 288 L-1 -1 Z"/>
</clipPath>
<clipPath clipPathUnits="userSpaceOnUse" id="clipPath25">
<path d="M292 127 L330 127 L330 144 L292 144 L292 127 Z"/>
</clipPath>
<clipPath clipPathUnits="userSpaceOnUse" id="clipPath26">
<path d="M379 135 L396 135 L396 150 L379 150 L379 135 Z"/>
</clipPath>
<clipPath clipPathUnits="userSpaceOnUse" id="clipPath27">
<path d="M118 148 L157 148 L157 165 L118 165 L118 148 Z"/>
</clipPath>
<clipPath clipPathUnits="userSpaceOnUse" id="clipPath28">
<path d="M208 158 L225 158 L225 173 L208 173 L208 158 Z"/>
</clipPath>
<clipPath clipPathUnits="userSpaceOnUse" id="clipPath29">
<path d="M250 93 L309 93 L309 110 L250 110 L250 93 Z"/>
</clipPath>
<clipPath clipPathUnits="userSpaceOnUse" id="clipPath30">
<path d="M318 108 L335 108 L335 123 L318 123 L318 108 Z"/>
</clipPath>
<clipPath clipPathUnits="userSpaceOnUse" id="clipPath31">
<path d="M122 82 L168 82 L168 99 L122 99 L122 82 Z"/>
</clipPath>
<clipPath clipPathUnits="userSpaceOnUse" id="clipPath32">
<path d="M208 92 L225 92 L225 107 L208 107 L208 92 Z"/>
</clipPath>
<clipPath clipPathUnits="userSpaceOnUse" id="clipPath33">
<path d="M287 167 L339 167 L339 184 L287 184 L287 167 Z"/>
</clipPath>
<clipPath clipPathUnits="userSpaceOnUse" id="clipPath34">
<path d="M379 176 L396 176 L396 191 L379 191 L379 176 Z"/>
</clipPath>
</defs>
<g fill="url(#linearGradient1)" font-family="'Segoe UI'" stroke-linejoin="round" stroke="url(#linearGradient1)" stroke-width="0" stroke-miterlimit="0">
<rect x="10" y="10" clip-path="url(#clipPath1)" width="492" height="267" stroke="none"/>
</g>
<g stroke-width="1.1" font-family="'Segoe UI'" stroke-linecap="butt">
<line clip-path="url(#clipPath2)" fill="none" x1="101" x2="101" y1="11" y2="24"/>
<line clip-path="url(#clipPath2)" fill="none" x1="101" x2="101" y1="24" y2="24"/>
<line clip-path="url(#clipPath2)" fill="none" x1="101" x2="94" y1="24" y2="31"/>
<line clip-path="url(#clipPath2)" fill="none" x1="94" x2="94" y1="31" y2="31"/>
<line clip-path="url(#clipPath2)" fill="none" x1="94" x2="11" y1="31" y2="31"/>
<text xml:space="preserve" x="14" y="27" clip-path="url(#clipPath3)" stroke="none">sd: Interaction</text>
<rect x="11" y="32" clip-path="url(#clipPath4)" fill="none" width="489" height="243"/>
<rect x="29" y="53" clip-path="url(#clipPath5)" fill="white" width="100" height="30" stroke="none"/>
<rect x="29" y="53" clip-path="url(#clipPath6)" fill="white" width="100" height="30" stroke="none"/>
<rect x="29" y="53" clip-path="url(#clipPath6)" fill="none" width="99" height="29"/>
<text xml:space="preserve" x="67" y="73" clip-path="url(#clipPath7)" stroke="none">User</text>
<line clip-path="url(#clipPath8)" fill="none" x1="79" x2="79" y1="84" y2="90"/>
<line clip-path="url(#clipPath8)" fill="none" x1="79" x2="79" y1="94" y2="100"/>
<line clip-path="url(#clipPath8)" fill="none" x1="79" x2="79" y1="104" y2="110"/>
<line clip-path="url(#clipPath8)" fill="none" x1="79" x2="79" y1="114" y2="120"/>
<line clip-path="url(#clipPath8)" fill="none" x1="79" x2="79" y1="124" y2="130"/>
<line clip-path="url(#clipPath8)" fill="none" x1="79" x2="79" y1="134" y2="140"/>
<line clip-path="url(#clipPath8)" fill="none" x1="79" x2="79" y1="144" y2="150"/>
<line clip-path="url(#clipPath8)" fill="none" x1="79" x2="79" y1="154" y2="160"/>
<line clip-path="url(#clipPath8)" fill="none" x1="79" x2="79" y1="164" y2="170"/>
<line clip-path="url(#clipPath8)" fill="none" x1="79" x2="79" y1="174" y2="180"/>
<line clip-path="url(#clipPath8)" fill="none" x1="79" x2="79" y1="184" y2="190"/>
<line clip-path="url(#clipPath8)" fill="none" x1="79" x2="79" y1="194" y2="200"/>
<line clip-path="url(#clipPath8)" fill="none" x1="79" x2="79" y1="204" y2="210"/>
<line clip-path="url(#clipPath8)" fill="none" x1="79" x2="79" y1="214" y2="220"/>
<line clip-path="url(#clipPath8)" fill="none" x1="79" x2="79" y1="224" y2="230"/>
<line clip-path="url(#clipPath8)" fill="none" x1="79" x2="79" y1="234" y2="240"/>
<line clip-path="url(#clipPath8)" fill="none" x1="79" x2="79" y1="244" y2="250"/>
<line clip-path="url(#clipPath8)" fill="none" x1="79" x2="79" y1="254" y2="260"/>
<rect x="71" y="99" clip-path="url(#clipPath9)" fill="white" width="16" height="33" stroke="none"/>
<rect x="71" y="99" clip-path="url(#clipPath9)" fill="none" width="15" height="32"/>
<rect x="71" y="165" clip-path="url(#clipPath10)" fill="white" width="16" height="50" stroke="none"/>
<rect x="71" y="165" clip-path="url(#clipPath10)" fill="none" width="15" height="49"/>
<rect x="165" y="53" clip-path="url(#clipPath11)" fill="white" width="133" height="30" stroke="none"/>
<rect x="165" y="53" clip-path="url(#clipPath12)" fill="white" width="133" height="30" stroke="none"/>
<rect x="165" y="53" clip-path="url(#clipPath12)" fill="none" width="132" height="29"/>
<text xml:space="preserve" x="192" y="73" clip-path="url(#clipPath13)" stroke="none">display:Display</text>
<line clip-path="url(#clipPath14)" fill="none" x1="231" x2="231" y1="84" y2="90"/>
<line clip-path="url(#clipPath14)" fill="none" x1="231" x2="231" y1="94" y2="100"/>
<line clip-path="url(#clipPath14)" fill="none" x1="231" x2="231" y1="104" y2="110"/>
<line clip-path="url(#clipPath14)" fill="none" x1="231" x2="231" y1="114" y2="120"/>
<line clip-path="url(#clipPath14)" fill="none" x1="231" x2="231" y1="124" y2="130"/>
<line clip-path="url(#clipPath14)" fill="none" x1="231" x2="231" y1="134" y2="140"/>
<line clip-path="url(#clipPath14)" fill="none" x1="231" x2="231" y1="144" y2="150"/>
<line clip-path="url(#clipPath14)" fill="none" x1="231" x2="231" y1="154" y2="160"/>
<line clip-path="url(#clipPath14)" fill="none" x1="231" x2="231" y1="164" y2="170"/>
<line clip-path="url(#clipPath14)" fill="none" x1="231" x2="231" y1="174" y2="180"/>
<line clip-path="url(#clipPath14)" fill="none" x1="231" x2="231" y1="184" y2="190"/>
<line clip-path="url(#clipPath14)" fill="none" x1="231" x2="231" y1="194" y2="200"/>
<line clip-path="url(#clipPath14)" fill="none" x1="231" x2="231" y1="204" y2="210"/>
<line clip-path="url(#clipPath14)" fill="none" x1="231" x2="231" y1="214" y2="220"/>
<line clip-path="url(#clipPath14)" fill="none" x1="231" x2="231" y1="224" y2="230"/>
<line clip-path="url(#clipPath14)" fill="none" x1="231" x2="231" y1="234" y2="240"/>
<line clip-path="url(#clipPath14)" fill="none" x1="231" x2="231" y1="244" y2="250"/>
<line clip-path="url(#clipPath14)" fill="none" x1="231" x2="231" y1="254" y2="260"/>
<rect x="223" y="99" clip-path="url(#clipPath15)" fill="white" width="16" height="62" stroke="none"/>
<rect x="223" y="99" clip-path="url(#clipPath15)" fill="none" width="15" height="61"/>
<rect x="223" y="165" clip-path="url(#clipPath16)" fill="white" width="16" height="50" stroke="none"/>
<rect x="223" y="165" clip-path="url(#clipPath16)" fill="none" width="15" height="49"/>
<rect x="333" y="100" clip-path="url(#clipPath17)" fill="white" width="138" height="30" stroke="none"/>
<rect x="333" y="100" clip-path="url(#clipPath18)" fill="white" width="138" height="30" stroke="none"/>
<rect x="333" y="100" clip-path="url(#clipPath18)" fill="none" width="137" height="29"/>
<text xml:space="preserve" x="353" y="120" clip-path="url(#clipPath19)" stroke="none">streamer:Streamer</text>
<line clip-path="url(#clipPath20)" fill="none" x1="402" x2="402" y1="131" y2="137"/>
<line clip-path="url(#clipPath20)" fill="none" x1="402" x2="402" y1="141" y2="147"/>
<line clip-path="url(#clipPath20)" fill="none" x1="402" x2="402" y1="151" y2="157"/>
<line clip-path="url(#clipPath20)" fill="none" x1="402" x2="402" y1="161" y2="167"/>
<line clip-path="url(#clipPath20)" fill="none" x1="402" x2="402" y1="171" y2="177"/>
<line clip-path="url(#clipPath20)" fill="none" x1="402" x2="402" y1="181" y2="187"/>
<line clip-path="url(#clipPath20)" fill="none" x1="402" x2="402" y1="191" y2="197"/>
<line clip-path="url(#clipPath20)" fill="none" x1="402" x2="402" y1="201" y2="207"/>
<line clip-path="url(#clipPath20)" fill="none" x1="402" x2="402" y1="211" y2="217"/>
<line clip-path="url(#clipPath20)" fill="none" x1="402" x2="402" y1="221" y2="227"/>
<line clip-path="url(#clipPath20)" fill="none" x1="402" x2="402" y1="231" y2="237"/>
<line clip-path="url(#clipPath20)" fill="none" x1="402" x2="402" y1="241" y2="247"/>
<line clip-path="url(#clipPath20)" fill="none" x1="402" x2="402" y1="251" y2="257"/>
<line clip-path="url(#clipPath20)" fill="none" x1="402" x2="402" y1="261" y2="263"/>
<rect x="394" y="142" clip-path="url(#clipPath21)" fill="white" width="16" height="31" stroke="none"/>
<rect x="394" y="142" clip-path="url(#clipPath21)" fill="none" width="15" height="30"/>
<rect x="394" y="183" clip-path="url(#clipPath22)" fill="white" width="16" height="50" stroke="none"/>
<rect x="394" y="183" clip-path="url(#clipPath22)" fill="none" width="15" height="49"/>
<line clip-path="url(#clipPath23)" fill="none" x1="16" x2="496" y1="37" y2="37"/>
<rect x="10" y="10" clip-path="url(#clipPath1)" fill="none" width="491" height="266"/>
<line clip-path="url(#clipPath24)" fill="none" text-rendering="optimizeLegibility" x1="239" x2="394" y1="142" y2="142"/>
<text x="293" y="141" clip-path="url(#clipPath25)" text-rendering="optimizeLegibility" stroke="none" xml:space="preserve">  wait()</text>
<polygon text-rendering="optimizeLegibility" clip-path="url(#clipPath26)" points=" 380 148 394 142 380 136 380 148" stroke="none"/>
<polygon text-rendering="optimizeLegibility" fill="none" clip-path="url(#clipPath26)" points=" 380 148 394 142 380 136 380 148"/>
<line clip-path="url(#clipPath24)" fill="none" text-rendering="optimizeLegibility" x1="87" x2="223" y1="165" y2="165"/>
<text x="119" y="162" clip-path="url(#clipPath27)" text-rendering="optimizeLegibility" stroke="none" xml:space="preserve">  start()</text>
<polygon text-rendering="optimizeLegibility" clip-path="url(#clipPath28)" points=" 209 171 223 165 209 159 209 171" stroke="none"/>
<polygon text-rendering="optimizeLegibility" fill="none" clip-path="url(#clipPath28)" points=" 209 171 223 165 209 159 209 171"/>
<line clip-path="url(#clipPath24)" fill="none" text-rendering="optimizeLegibility" x1="239" x2="333" y1="115" y2="115" stroke-dasharray="6.6,3.3"/>
<text x="251" y="107" clip-path="url(#clipPath29)" text-rendering="optimizeLegibility" stroke-dasharray="6.6,3.3" stroke="none" xml:space="preserve">  connect()</text>
<line clip-path="url(#clipPath30)" fill="none" text-rendering="optimizeLegibility" x1="319" x2="333" y1="121" y2="115"/>
<line clip-path="url(#clipPath30)" fill="none" text-rendering="optimizeLegibility" x1="333" x2="319" y1="115" y2="109"/>
<line clip-path="url(#clipPath24)" fill="none" text-rendering="optimizeLegibility" x1="87" x2="223" y1="99" y2="99"/>
<text x="123" y="96" clip-path="url(#clipPath31)" text-rendering="optimizeLegibility" stroke="none" xml:space="preserve">  select()</text>
<polygon text-rendering="optimizeLegibility" clip-path="url(#clipPath32)" points=" 209 105 223 99 209 93 209 105" stroke="none"/>
<polygon text-rendering="optimizeLegibility" fill="none" clip-path="url(#clipPath32)" points=" 209 105 223 99 209 93 209 105"/>
<line clip-path="url(#clipPath24)" fill="none" text-rendering="optimizeLegibility" x1="239" x2="394" y1="183" y2="183"/>
<text x="288" y="181" clip-path="url(#clipPath33)" text-rendering="optimizeLegibility" stroke="none" xml:space="preserve">  stream()</text>
<polygon text-rendering="optimizeLegibility" clip-path="url(#clipPath34)" points=" 380 189 394 183 380 177 380 189" stroke="none"/>
<polygon text-rendering="optimizeLegibility" fill="none" clip-path="url(#clipPath34)" points=" 380 189 394 183 380 177 380 189"/>
<line clip-path="url(#clipPath24)" fill="none" text-rendering="optimizeLegibility" x1="87" x2="223" y1="99" y2="99"/>
<text x="123" y="96" clip-path="url(#clipPath31)" text-rendering="optimizeLegibility" stroke="none" xml:space="preserve">  select()</text>
<polygon text-rendering="optimizeLegibility" clip-path="url(#clipPath32)" points=" 209 105 223 99 209 93 209 105" stroke="none"/>
<polygon text-rendering="optimizeLegibility" fill="none" clip-path="url(#clipPath32)" points=" 209 105 223 99 209 93 209 105"/>
<line clip-path="url(#clipPath24)" fill="none" text-rendering="optimizeLegibility" x1="239" x2="333" y1="115" y2="115" stroke-dasharray="6.6,3.3"/>
<text x="251" y="107" clip-path="url(#clipPath29)" text-rendering="optimizeLegibility" stroke-dasharray="6.6,3.3" stroke="none" xml:space="preserve">  connect()</text>
<line clip-path="url(#clipPath30)" fill="none" text-rendering="optimizeLegibility" x1="319" x2="333" y1="121" y2="115"/>
<line clip-path="url(#clipPath30)" fill="none" text-rendering="optimizeLegibility" x1="333" x2="319" y1="115" y2="109"/>
<line clip-path="url(#clipPath24)" fill="none" text-rendering="optimizeLegibility" x1="239" x2="394" y1="142" y2="142"/>
<text x="293" y="141" clip-path="url(#clipPath25)" text-rendering="optimizeLegibility" stroke="none" xml:space="preserve">  wait()</text>
<polygon text-rendering="optimizeLegibility" clip-path="url(#clipPath26)" points=" 380 148 394 142 380 136 380 148" stroke="none"/>
<polygon text-rendering="optimizeLegibility" fill="none" clip-path="url(#clipPath26)" points=" 380 148 394 142 380 136 380 148"/>
<line clip-path="url(#clipPath24)" fill="none" text-rendering="optimizeLegibility" x1="87" x2="223" y1="165" y2="165"/>
<text x="119" y="162" clip-path="url(#clipPath27)" text-rendering="optimizeLegibility" stroke="none" xml:space="preserve">  start()</text>
<polygon text-rendering="optimizeLegibility" clip-path="url(#clipPath28)" points=" 209 171 223 165 209 159 209 171" stroke="none"/>
<polygon text-rendering="optimizeLegibility" fill="none" clip-path="url(#clipPath28)" points=" 209 171 223 165 209 159 209 171"/>
<line clip-path="url(#clipPath24)" fill="none" text-rendering="optimizeLegibility" x1="239" x2="394" y1="183" y2="183"/>
<text x="288" y="181" clip-path="url(#clipPath33)" text-rendering="optimizeLegibility" stroke="none" xml:space="preserve">  stream()</text>
<polygon text-rendering="optimizeLegibility" clip-path="url(#clipPath34)" points=" 380 189 394 183 380 177 380 189" stroke="none"/>
<polygon text-rendering="optimizeLegibility" fill="none" clip-path="url(#clipPath34)" points=" 380 189 394 183 380 177 380 189"/>
</g>
</g>
</svg>
