<?xml version="1.0" encoding="UTF-8"?><svg xmlns="http://www.w3.org/2000/svg" xmlns:xlink="http://www.w3.org/1999/xlink" stroke-dasharray="none" shape-rendering="auto" font-family="'Dialog'" width="540" text-rendering="auto" fill-opacity="1" contentScriptType="text/ecmascript" color-interpolation="auto" color-rendering="auto" preserveAspectRatio="xMidYMid meet" font-size="12" viewBox="0 0 540 159" fill="black" stroke="black" image-rendering="auto" stroke-miterlimit="10" zoomAndPan="magnify" version="1.0" stroke-linecap="square" stroke-linejoin="miter" contentStyleType="text/css" font-style="normal" height="159" stroke-width="1" stroke-dashoffset="0" font-weight="normal" stroke-opacity="1">
<!--Generated by the Batik Graphics2D SVG Generator-->
<defs id="genericDefs"/>
<g>
<defs id="defs1">
<linearGradient x1="10" x2="10" y1="10" gradientUnits="userSpaceOnUse" y2="149" xlink:type="simple" xlink:actuate="onLoad" id="linearGradient1" xlink:show="other" spreadMethod="pad">
<stop stop-opacity="1" stop-color="white" offset="0%"/>
<stop stop-opacity="1" stop-color="white" offset="100%"/>
</linearGradient>
<linearGradient x1="210" x2="210" y1="10" gradientUnits="userSpaceOnUse" y2="119" xlink:type="simple" xlink:actuate="onLoad" id="linearGradient2" xlink:show="other" spreadMethod="pad">
<stop stop-opacity="1" stop-color="white" offset="0%"/>
<stop stop-opacity="1" stop-color="white" offset="100%"/>
</linearGradient>
<linearGradient x1="420" x2="420" y1="10" gradientUnits="userSpaceOnUse" y2="119" xlink:type="simple" xlink:actuate="onLoad" id="linearGradient3" xlink:show="other" spreadMethod="pad">
<stop stop-opacity="1" stop-color="white" offset="0%"/>
<stop stop-opacity="1" stop-color="white" offset="100%"/>
</linearGradient>
<clipPath clipPathUnits="userSpaceOnUse" id="clipPath1">
<path d="M10 10 L10 148 L109 148 L109 10 Z"/>
</clipPath>
<clipPath clipPathUnits="userSpaceOnUse" id="clipPath2">
<path d="M41 12 L81 12 L81 29 L41 29 L41 12 Z"/>
</clipPath>
<clipPath clipPathUnits="userSpaceOnUse" id="clipPath3">
<path d="M10 28 L111 28 L111 52 L10 52 L10 28 Z"/>
</clipPath>
<clipPath clipPathUnits="userSpaceOnUse" id="clipPath4">
<path d="M15 53 L69 53 L69 70 L15 70 L15 53 Z"/>
</clipPath>
<clipPath clipPathUnits="userSpaceOnUse" id="clipPath5">
<path d="M15 68 L65 68 L65 85 L15 85 L15 68 Z"/>
</clipPath>
<clipPath clipPathUnits="userSpaceOnUse" id="clipPath6">
<path d="M15 83 L62 83 L62 100 L15 100 L15 83 Z"/>
</clipPath>
<clipPath clipPathUnits="userSpaceOnUse" id="clipPath7">
<path d="M15 98 L62 98 L62 115 L15 115 L15 98 Z"/>
</clipPath>
<clipPath clipPathUnits="userSpaceOnUse" id="clipPath8">
<path d="M10 51 L111 51 L111 126 L10 126 L10 51 Z"/>
</clipPath>
<clipPath clipPathUnits="userSpaceOnUse" id="clipPath9">
<path d="M10 125 L111 125 L111 149 L10 149 L10 125 Z"/>
</clipPath>
<clipPath clipPathUnits="userSpaceOnUse" id="clipPath10">
<path d="M9 9 L111 9 L111 150 L9 150 L9 9 Z"/>
</clipPath>
<clipPath clipPathUnits="userSpaceOnUse" id="clipPath11">
<path d="M210 10 L210 118 L309 118 L309 10 Z"/>
</clipPath>
<clipPath clipPathUnits="userSpaceOnUse" id="clipPath12">
<path d="M236 12 L286 12 L286 29 L236 29 L236 12 Z"/>
</clipPath>
<clipPath clipPathUnits="userSpaceOnUse" id="clipPath13">
<path d="M210 28 L311 28 L311 52 L210 52 L210 28 Z"/>
</clipPath>
<clipPath clipPathUnits="userSpaceOnUse" id="clipPath14">
<path d="M215 53 L275 53 L275 70 L215 70 L215 53 Z"/>
</clipPath>
<clipPath clipPathUnits="userSpaceOnUse" id="clipPath15">
<path d="M215 68 L261 68 L261 85 L215 85 L215 68 Z"/>
</clipPath>
<clipPath clipPathUnits="userSpaceOnUse" id="clipPath16">
<path d="M210 51 L311 51 L311 96 L210 96 L210 51 Z"/>
</clipPath>
<clipPath clipPathUnits="userSpaceOnUse" id="clipPath17">
<path d="M210 95 L311 95 L311 119 L210 119 L210 95 Z"/>
</clipPath>
<clipPath clipPathUnits="userSpaceOnUse" id="clipPath18">
<path d="M209 9 L311 9 L311 120 L209 120 L209 9 Z"/>
</clipPath>
<clipPath clipPathUnits="userSpaceOnUse" id="clipPath19">
<path d="M420 10 L420 118 L529 118 L529 10 Z"/>
</clipPath>
<clipPath clipPathUnits="userSpaceOnUse" id="clipPath20">
<path d="M458 12 L493 12 L493 29 L458 29 L458 12 Z"/>
</clipPath>
<clipPath clipPathUnits="userSpaceOnUse" id="clipPath21">
<path d="M420 28 L531 28 L531 52 L420 52 L420 28 Z"/>
</clipPath>
<clipPath clipPathUnits="userSpaceOnUse" id="clipPath22">
<path d="M425 53 L492 53 L492 70 L425 70 L425 53 Z"/>
</clipPath>
<clipPath clipPathUnits="userSpaceOnUse" id="clipPath23">
<path d="M425 68 L527 68 L527 85 L425 85 L425 68 Z"/>
</clipPath>
<clipPath clipPathUnits="userSpaceOnUse" id="clipPath24">
<path d="M420 51 L531 51 L531 96 L420 96 L420 51 Z"/>
</clipPath>
<clipPath clipPathUnits="userSpaceOnUse" id="clipPath25">
<path d="M420 95 L531 95 L531 119 L420 119 L420 95 Z"/>
</clipPath>
<clipPath clipPathUnits="userSpaceOnUse" id="clipPath26">
<path d="M419 9 L531 9 L531 120 L419 120 L419 9 Z"/>
</clipPath>
<clipPath clipPathUnits="userSpaceOnUse" id="clipPath27">
<path d="M-1 -1 L541 -1 L541 160 L-1 160 L-1 -1 Z"/>
</clipPath>
<clipPath clipPathUnits="userSpaceOnUse" id="clipPath28">
<path d="M308 35 L371 35 L371 52 L308 52 L308 35 Z"/>
</clipPath>
<clipPath clipPathUnits="userSpaceOnUse" id="clipPath29">
<path d="M359 56 L407 56 L407 73 L359 73 L359 56 Z"/>
</clipPath>
<clipPath clipPathUnits="userSpaceOnUse" id="clipPath30">
<path d="M308 56 L320 56 L320 73 L308 73 L308 56 Z"/>
</clipPath>
<clipPath clipPathUnits="userSpaceOnUse" id="clipPath31">
<path d="M399 35 L410 35 L410 52 L399 52 L399 35 Z"/>
</clipPath>
<clipPath clipPathUnits="userSpaceOnUse" id="clipPath32">
<path d="M404 50 L422 50 L422 63 L404 63 L404 50 Z"/>
</clipPath>
<clipPath clipPathUnits="userSpaceOnUse" id="clipPath33">
<path d="M149 56 L212 56 L212 73 L149 73 L149 56 Z"/>
</clipPath>
<clipPath clipPathUnits="userSpaceOnUse" id="clipPath34">
<path d="M119 35 L172 35 L172 52 L119 52 L119 35 Z"/>
</clipPath>
<clipPath clipPathUnits="userSpaceOnUse" id="clipPath35">
<path d="M200 35 L212 35 L212 52 L200 52 L200 35 Z"/>
</clipPath>
<clipPath clipPathUnits="userSpaceOnUse" id="clipPath36">
<path d="M129 56 L141 56 L141 73 L129 73 L129 56 Z"/>
</clipPath>
<clipPath clipPathUnits="userSpaceOnUse" id="clipPath37">
<path d="M109 50 L127 50 L127 63 L109 63 L109 50 Z"/>
</clipPath>
</defs>
<g fill="url(#linearGradient1)" font-family="'Segoe UI'" stroke-linejoin="round" stroke="url(#linearGradient1)" stroke-width="0" stroke-miterlimit="0">
<rect x="10" y="10" clip-path="url(#clipPath1)" width="100" height="139" stroke="none"/>
<text x="42" y="26" clip-path="url(#clipPath2)" fill="black" stroke="none" xml:space="preserve">Display</text>
</g>
<g stroke-width="1.1" font-family="'Segoe UI'" stroke-linecap="butt">
<line clip-path="url(#clipPath3)" fill="none" x1="10" x2="110" y1="29" y2="29"/>
<text xml:space="preserve" x="16" y="67" clip-path="url(#clipPath4)" stroke="none"> + select()</text>
<text xml:space="preserve" x="16" y="82" clip-path="url(#clipPath5)" stroke="none"> + draw()</text>
<text xml:space="preserve" x="16" y="97" clip-path="url(#clipPath6)" stroke="none"> + stop()</text>
<text xml:space="preserve" x="16" y="112" clip-path="url(#clipPath7)" stroke="none"> + start()</text>
<line clip-path="url(#clipPath8)" fill="none" x1="10" x2="110" y1="52" y2="52"/>
<line clip-path="url(#clipPath9)" fill="none" x1="10" x2="110" y1="126" y2="126"/>
<rect x="10" y="10" clip-path="url(#clipPath10)" fill="none" width="99" rx="0" ry="0" height="138"/>
<rect x="210" y="10" clip-path="url(#clipPath11)" fill="url(#linearGradient2)" width="100" height="109" stroke="none"/>
<text xml:space="preserve" x="237" y="26" clip-path="url(#clipPath12)" stroke="none">Streamer</text>
<line clip-path="url(#clipPath13)" fill="none" x1="210" x2="310" y1="29" y2="29"/>
<text xml:space="preserve" x="216" y="67" clip-path="url(#clipPath14)" stroke="none"> + stream()</text>
<text xml:space="preserve" x="216" y="82" clip-path="url(#clipPath15)" stroke="none"> + wait()</text>
<line clip-path="url(#clipPath16)" fill="none" x1="210" x2="310" y1="52" y2="52"/>
<line clip-path="url(#clipPath17)" fill="none" x1="210" x2="310" y1="96" y2="96"/>
<rect x="210" y="10" clip-path="url(#clipPath18)" fill="none" width="99" rx="0" ry="0" height="108"/>
<rect x="420" y="10" clip-path="url(#clipPath19)" fill="url(#linearGradient3)" width="110" height="109" stroke="none"/>
<text xml:space="preserve" x="459" y="26" clip-path="url(#clipPath20)" stroke="none">Server</text>
<line clip-path="url(#clipPath21)" fill="none" x1="420" x2="530" y1="29" y2="29"/>
<text xml:space="preserve" x="426" y="67" clip-path="url(#clipPath22)" stroke="none"> + connect()</text>
<text xml:space="preserve" x="426" y="82" clip-path="url(#clipPath23)" stroke="none"> + handleRequest()</text>
<line clip-path="url(#clipPath24)" fill="none" x1="420" x2="530" y1="52" y2="52"/>
<line clip-path="url(#clipPath25)" fill="none" x1="420" x2="530" y1="96" y2="96"/>
<rect x="420" y="10" clip-path="url(#clipPath26)" fill="none" width="109" rx="0" ry="0" height="108"/>
<line clip-path="url(#clipPath27)" fill="none" text-rendering="optimizeLegibility" x1="310" x2="365" y1="56" y2="56"/>
<line clip-path="url(#clipPath27)" fill="none" text-rendering="optimizeLegibility" x1="365" x2="420" y1="56" y2="56"/>
<text x="309" y="49" clip-path="url(#clipPath28)" text-rendering="optimizeLegibility" stroke="none" xml:space="preserve"> + streamer</text>
<text x="360" y="70" clip-path="url(#clipPath29)" text-rendering="optimizeLegibility" stroke="none" xml:space="preserve"> + server</text>
<text x="309" y="70" clip-path="url(#clipPath30)" text-rendering="optimizeLegibility" stroke="none" xml:space="preserve"> 1</text>
<text x="400" y="49" clip-path="url(#clipPath31)" text-rendering="optimizeLegibility" stroke="none" xml:space="preserve"> *</text>
<line clip-path="url(#clipPath32)" fill="none" text-rendering="optimizeLegibility" x1="405" x2="420" y1="61" y2="56"/>
<line clip-path="url(#clipPath32)" fill="none" text-rendering="optimizeLegibility" x1="420" x2="405" y1="56" y2="51"/>
<line clip-path="url(#clipPath27)" fill="none" text-rendering="optimizeLegibility" x1="210" x2="160" y1="56" y2="56"/>
<line clip-path="url(#clipPath27)" fill="none" text-rendering="optimizeLegibility" x1="160" x2="110" y1="56" y2="56"/>
<text x="150" y="70" clip-path="url(#clipPath33)" text-rendering="optimizeLegibility" stroke="none" xml:space="preserve"> + streamer</text>
<text x="120" y="49" clip-path="url(#clipPath34)" text-rendering="optimizeLegibility" stroke="none" xml:space="preserve"> + display</text>
<text x="201" y="49" clip-path="url(#clipPath35)" text-rendering="optimizeLegibility" stroke="none" xml:space="preserve"> 1</text>
<text x="130" y="70" clip-path="url(#clipPath36)" text-rendering="optimizeLegibility" stroke="none" xml:space="preserve"> 1</text>
<line clip-path="url(#clipPath37)" fill="none" text-rendering="optimizeLegibility" x1="125" x2="110" y1="51" y2="56"/>
<line clip-path="url(#clipPath37)" fill="none" text-rendering="optimizeLegibility" x1="110" x2="125" y1="56" y2="61"/>
</g>
</g>
</svg>
