<?xml version="1.0" encoding="UTF-8"?><svg xmlns="http://www.w3.org/2000/svg" xmlns:xlink="http://www.w3.org/1999/xlink" stroke-dasharray="none" shape-rendering="auto" font-family="'Dialog'" width="311" text-rendering="auto" fill-opacity="1" contentScriptType="text/ecmascript" color-interpolation="auto" color-rendering="auto" preserveAspectRatio="xMidYMid meet" font-size="12" viewBox="0 0 311 186" fill="black" stroke="black" image-rendering="auto" stroke-miterlimit="10" zoomAndPan="magnify" version="1.0" stroke-linecap="square" stroke-linejoin="miter" contentStyleType="text/css" font-style="normal" height="186" stroke-width="1" stroke-dashoffset="0" font-weight="normal" stroke-opacity="1">
<!--Generated by the Batik Graphics2D SVG Generator-->
<defs id="genericDefs"/>
<g>
<g fill="url(#linearGradient1)" font-family="'Segoe UI'" stroke-linejoin="round" stroke="url(#linearGradient1)" stroke-width="0" stroke-miterlimit="0">
<rect x="10" y="10" clip-path="url(#clipPath1)" width="291" height="161" stroke="none"/>
<text x="120" y="26" clip-path="url(#clipPath2)" fill="black" stroke="none" xml:space="preserve">StateMachine</text>
<rect x="11" y="30" clip-path="url(#clipPath3)" fill="white" width="291" height="141" stroke="none"/>
<rect x="20" y="50" clip-path="url(#clipPath4)" fill="url(#linearGradient2)" width="20" opacity="0" height="20" stroke="none"/>
</g>
<svg xmlns:rdf="http://www.w3.org/1999/02/22-rdf-syntax-ns#" xmlns:svg="http://www.w3.org/2000/svg" xmlns:sodipodi="http://sodipodi.sourceforge.net/DTD/sodipodi-0.dtd" xmlns:dc="http://purl.org/dc/elements/1.1/" xmlns:inkscape="http://www.inkscape.org/namespaces/inkscape" xmlns:cc="http://creativecommons.org/ns#" contentScriptType="text/ecmascript" zoomAndPan="magnify" contentStyleType="text/css" id="svg2" sodipodi:docname="round_full.svg" style="" version="1.1" width="20" preserveAspectRatio="xMidYMid meet" inkscape:version="0.48.5 r10040" height="20" class="" x="20" y="50">
  <defs style="" id="defs4">
    <linearGradient xlink:type="simple" style="" xlink:actuate="onLoad" id="linearGradient3789" xlink:show="other">
      <stop id="stop3791" offset="0" style="stop-color:#000005;stop-opacity:1"/>
      <stop id="stop3793" offset="1" style="  stop-color:black;stop-opacity:0"/>
    </linearGradient>
    <inkscape:perspective inkscape:persp3d-origin="42.5 : 13.333333 : 1" style="" id="perspective3063" inkscape:vp_z="85 : 20 : 1" inkscape:vp_y="0 : 1000 : 0" inkscape:vp_x="0 : 20 : 1" sodipodi:type="inkscape:persp3d"/>
    <linearGradient xlink:type="simple" style="" xlink:actuate="onLoad" id="linearGradient3786" xlink:show="other">
      <stop id="stop3788" offset="0" style=" stop-color:black;stop-opacity:0"/>
      <stop id="stop3794" offset="1" style="stop-color:#919cd7;stop-opacity:1"/>
    </linearGradient>
  <linearGradient x1="10" x2="10" y1="10" gradientUnits="userSpaceOnUse" y2="171" xlink:type="simple" xlink:actuate="onLoad" id="linearGradient1" xlink:show="other" spreadMethod="pad">
<stop stop-opacity="1" stop-color="white" offset="0%"/>
<stop stop-opacity="1" stop-color="white" offset="100%"/>
</linearGradient>
<linearGradient x1="20" x2="20" y1="50" gradientUnits="userSpaceOnUse" y2="70" xlink:type="simple" xlink:actuate="onLoad" id="linearGradient2" xlink:show="other" spreadMethod="pad">
<stop stop-opacity="1" stop-color="black" offset="0%"/>
<stop stop-opacity="1" stop-color="black" offset="100%"/>
</linearGradient>
<linearGradient x1="60" x2="60" y1="78" gradientUnits="userSpaceOnUse" y2="122" xlink:type="simple" xlink:actuate="onLoad" id="linearGradient3" xlink:show="other" spreadMethod="pad">
<stop stop-opacity="1" stop-color="white" offset="0%"/>
<stop stop-opacity="1" stop-color="white" offset="100%"/>
</linearGradient>
<linearGradient x1="200" x2="200" y1="78" gradientUnits="userSpaceOnUse" y2="122" xlink:type="simple" xlink:actuate="onLoad" id="linearGradient4" xlink:show="other" spreadMethod="pad">
<stop stop-opacity="1" stop-color="white" offset="0%"/>
<stop stop-opacity="1" stop-color="white" offset="100%"/>
</linearGradient>
<clipPath clipPathUnits="userSpaceOnUse" id="clipPath1">
<path d="M20 10 C14.4771 10 10 14.4772 10 20 L10 20 L10 160 C10 165.5228 14.4771 170 20 170 C20 170 20 170 20 170 L20 170 L290 170 C295.5228 170 300 165.5228 300 160 L300 160 L300 20 C300 20 300 20 300 20 C300 14.4771 295.5228 10 290 10 C290 10 290 10 290 10 L20 10 L20 10 Z"/>
</clipPath>
<clipPath clipPathUnits="userSpaceOnUse" id="clipPath2">
<path d="M119 12 L194 12 L194 29 L119 29 L119 12 Z"/>
</clipPath>
<clipPath clipPathUnits="userSpaceOnUse" id="clipPath3">
<path d="M10 29 L302 29 L302 172 L10 172 L10 29 Z"/>
</clipPath>
<clipPath clipPathUnits="userSpaceOnUse" id="clipPath4">
<path d="M20 50 L20 69 L39 69 L39 50 Z"/>
</clipPath>
<clipPath clipPathUnits="userSpaceOnUse" id="clipPath5">
<path d="M19 37 L42 37 L42 54 L19 54 L19 37 Z"/>
</clipPath>
<clipPath clipPathUnits="userSpaceOnUse" id="clipPath6">
<path d="M110 78 C110 78 110 78 110 78 L70 78 C64.4771 78 60 82.4772 60 88 L60 88 L60 111 C60 116.5228 64.4771 121 70 121 C70 121 70 121 70 121 L70 121 L110 121 C115.5228 121 120 116.5228 120 111 L120 111 L120 88 C120 82.4771 115.5228 78 110 78 Z"/>
</clipPath>
<clipPath clipPathUnits="userSpaceOnUse" id="clipPath7">
<path d="M69 80 L113 80 L113 97 L69 97 L69 80 Z"/>
</clipPath>
<clipPath clipPathUnits="userSpaceOnUse" id="clipPath8">
<path d="M59 77 L122 77 L122 123 L59 123 L59 77 Z"/>
</clipPath>
<clipPath clipPathUnits="userSpaceOnUse" id="clipPath9">
<path d="M250 78 C250 78 250 78 250 78 L210 78 C204.4771 78 200 82.4772 200 88 L200 88 L200 111 C200 116.5228 204.4772 121 210 121 C210 121 210 121 210 121 L210 121 L250 121 C255.5228 121 260 116.5228 260 111 L260 88 C260 82.4771 255.5228 78 250 78 Z"/>
</clipPath>
<clipPath clipPathUnits="userSpaceOnUse" id="clipPath10">
<path d="M203 80 L260 80 L260 97 L203 97 L203 80 Z"/>
</clipPath>
<clipPath clipPathUnits="userSpaceOnUse" id="clipPath11">
<path d="M199 77 L262 77 L262 123 L199 123 L199 77 Z"/>
</clipPath>
<clipPath clipPathUnits="userSpaceOnUse" id="clipPath12">
<path d="M10 28 L302 28 L302 172 L10 172 L10 28 Z"/>
</clipPath>
<clipPath clipPathUnits="userSpaceOnUse" id="clipPath13">
<path d="M9 9 L302 9 L302 172 L9 172 L9 9 Z"/>
</clipPath>
<clipPath clipPathUnits="userSpaceOnUse" id="clipPath14">
<path d="M-1 -1 L312 -1 L312 187 L-1 187 L-1 -1 Z"/>
</clipPath>
<clipPath clipPathUnits="userSpaceOnUse" id="clipPath15">
<path d="M79 147 L233 147 L233 164 L79 164 L79 147 Z"/>
</clipPath>
<clipPath clipPathUnits="userSpaceOnUse" id="clipPath16">
<path d="M139 129 L177 129 L177 146 L139 146 L139 129 Z"/>
</clipPath>
<clipPath clipPathUnits="userSpaceOnUse" id="clipPath17">
<path d="M224 121 L237 121 L237 139 L224 139 L224 121 Z"/>
</clipPath>
<clipPath clipPathUnits="userSpaceOnUse" id="clipPath18">
<path d="M89 27 L229 27 L229 44 L89 44 L89 27 Z"/>
</clipPath>
<clipPath clipPathUnits="userSpaceOnUse" id="clipPath19">
<path d="M149 49 L174 49 L174 66 L149 66 L149 49 Z"/>
</clipPath>
<clipPath clipPathUnits="userSpaceOnUse" id="clipPath20">
<path d="M84 62 L97 62 L97 80 L84 80 L84 62 Z"/>
</clipPath>
<clipPath clipPathUnits="userSpaceOnUse" id="clipPath21">
<path d="M29 92 L35 92 L35 109 L29 109 L29 92 Z"/>
</clipPath>
<clipPath clipPathUnits="userSpaceOnUse" id="clipPath22">
<path d="M44 94 L62 94 L62 107 L44 107 L44 94 Z"/>
</clipPath>
</defs>
  <sodipodi:namedview bordercolor="#666666" inkscape:window-height="1005" inkscape:zoom="5.6" id="base" inkscape:current-layer="layer1" style="" inkscape:window-y="-9" inkscape:cy="21.696429" inkscape:window-x="-9" inkscape:cx="-0.034771143" showgrid="false" inkscape:pageopacity="0.0" inkscape:document-units="px" units="px" inkscape:pageshadow="2" inkscape:window-width="1920" pagecolor="#ffffff" borderopacity="1.0" inkscape:window-maximized="1"/>
  <metadata style="" id="metadata7">
    <rdf:RDF style="">
      <cc:Work rdf:about="" style="">
        <dc:format style="">image/svg+xml</dc:format>
        <dc:type style="" rdf:resource="http://purl.org/dc/dcmitype/StillImage"/>
        <dc:title style=""/>
      </cc:Work>
    </rdf:RDF>
  </metadata>
  <g inkscape:groupmode="layer" id="layer1" style="" transform="translate(0,-1032.3617)" inkscape:label="Calque 1">
    <path sodipodi:arg1="0.56068699" inkscape:flatsided="false" inkscape:randomized="0" sodipodi:type="star" d="M 17.5,14.821429 L 16.411844,16.226801 L 15.070423,17.392882 L 13.527285,18.274857 L 11.841734,18.838835 L 10.078543,19.063141 L 8.3054712,18.939156 L 6.5906569,18.471644 L 4.9999996,17.678572 L 3.5946269,16.590416 L 2.4285468,15.248994 L 1.5465709,13.705857 L 0.98259317,12.020305 L 0.75828691,10.257114 L 0.8822721,8.4840429 L 1.3497841,6.7692286 L 2.1428565,5.1785713 L 3.2310123,3.7731986 L 4.5724339,2.6071185 L 6.1155716,1.7251426 L 7.8011231,1.1611649 L 9.564314,0.93685861 L 11.337385,1.0608438 L 13.0522,1.5283558 L 14.642857,2.3214282 L 16.04823,3.409584 L 17.21431,4.7510056 L 18.096286,6.2941433 L 18.660263,7.9796948 L 18.88457,9.7428857 L 18.760584,11.515957 L 18.293073,13.230771 z" id="PapyrusPath" style="stroke-opacity:1; fill:black;fill-opacity:1;stroke:none" inkscape:rounded="0" transform="translate(0,1032.3617)" sodipodi:sides="16" sodipodi:r1="9.0667877" sodipodi:cx="9.8214283" sodipodi:cy="10" sodipodi:arg2="0.75703654" sodipodi:r2="9.0667877"/>
  </g>
</svg>
<g stroke-miterlimit="0" stroke-width="0" font-family="'Segoe UI'" stroke-linejoin="round">
<text xml:space="preserve" x="20" y="51" clip-path="url(#clipPath5)" stroke="none"> Init</text>
<rect x="60" y="78" clip-path="url(#clipPath6)" fill="url(#linearGradient3)" width="61" height="44" stroke="none"/>
<text xml:space="preserve" x="70" y="94" clip-path="url(#clipPath7)" stroke="none">Waiting</text>
</g>
<g stroke-width="1.1" font-family="'Segoe UI'" stroke-linecap="butt">
<rect x="60" y="78" clip-path="url(#clipPath8)" fill="none" width="60" rx="10" ry="10" height="43"/>
<rect x="200" y="78" clip-path="url(#clipPath9)" fill="url(#linearGradient4)" width="61" height="44" stroke="none"/>
<text xml:space="preserve" x="204" y="94" clip-path="url(#clipPath10)" stroke="none">Streaming</text>
<rect x="200" y="78" clip-path="url(#clipPath11)" fill="none" width="60" rx="10" ry="10" height="43"/>
<line clip-path="url(#clipPath12)" fill="none" x1="11" x2="302" y1="29" y2="29"/>
<rect x="10" y="10" clip-path="url(#clipPath13)" fill="none" width="290" rx="10" ry="10" height="160"/>
<line clip-path="url(#clipPath14)" fill="none" text-rendering="optimizeLegibility" x1="90" x2="90" y1="122" y2="148"/>
<line clip-path="url(#clipPath14)" fill="none" text-rendering="optimizeLegibility" x1="90" x2="230" y1="148" y2="148"/>
<line clip-path="url(#clipPath14)" fill="none" text-rendering="optimizeLegibility" x1="230" x2="230" y1="148" y2="122"/>
<text x="80" y="161" clip-path="url(#clipPath15)" text-rendering="optimizeLegibility" stroke="none" xml:space="preserve">T(Waiting,Streaming,stream)</text>
<text x="140" y="143" clip-path="url(#clipPath16)" text-rendering="optimizeLegibility" stroke="none" xml:space="preserve">stream</text>
<line clip-path="url(#clipPath17)" fill="none" text-rendering="optimizeLegibility" x1="235" x2="230" y1="137" y2="122"/>
<line clip-path="url(#clipPath17)" fill="none" text-rendering="optimizeLegibility" x1="230" x2="225" y1="122" y2="137"/>
<line clip-path="url(#clipPath14)" fill="none" text-rendering="optimizeLegibility" x1="230" x2="230" y1="78" y2="48"/>
<line clip-path="url(#clipPath14)" fill="none" text-rendering="optimizeLegibility" x1="230" x2="90" y1="48" y2="48"/>
<line clip-path="url(#clipPath14)" fill="none" text-rendering="optimizeLegibility" x1="90" x2="90" y1="48" y2="78"/>
<text x="90" y="41" clip-path="url(#clipPath18)" text-rendering="optimizeLegibility" stroke="none" xml:space="preserve">T(Streaming,Waiting,wait)</text>
<text x="150" y="63" clip-path="url(#clipPath19)" text-rendering="optimizeLegibility" stroke="none" xml:space="preserve">wait</text>
<line clip-path="url(#clipPath20)" fill="none" text-rendering="optimizeLegibility" x1="85" x2="90" y1="63" y2="78"/>
<line clip-path="url(#clipPath20)" fill="none" text-rendering="optimizeLegibility" x1="90" x2="95" y1="78" y2="63"/>
<line clip-path="url(#clipPath14)" fill="none" text-rendering="optimizeLegibility" x1="30" x2="30" y1="69" y2="100"/>
<line clip-path="url(#clipPath14)" fill="none" text-rendering="optimizeLegibility" x1="30" x2="60" y1="100" y2="100"/>
<text x="30" y="106" clip-path="url(#clipPath21)" text-rendering="optimizeLegibility" stroke="none" xml:space="preserve"> </text>
<line clip-path="url(#clipPath22)" fill="none" text-rendering="optimizeLegibility" x1="45" x2="60" y1="105" y2="100"/>
<line clip-path="url(#clipPath22)" fill="none" text-rendering="optimizeLegibility" x1="60" x2="45" y1="100" y2="95"/>
<line clip-path="url(#clipPath14)" fill="none" text-rendering="optimizeLegibility" x1="30" x2="30" y1="69" y2="100"/>
<line clip-path="url(#clipPath14)" fill="none" text-rendering="optimizeLegibility" x1="30" x2="60" y1="100" y2="100"/>
<text x="30" y="106" clip-path="url(#clipPath21)" text-rendering="optimizeLegibility" stroke="none" xml:space="preserve"> </text>
<line clip-path="url(#clipPath22)" fill="none" text-rendering="optimizeLegibility" x1="45" x2="60" y1="105" y2="100"/>
<line clip-path="url(#clipPath22)" fill="none" text-rendering="optimizeLegibility" x1="60" x2="45" y1="100" y2="95"/>
<line clip-path="url(#clipPath14)" fill="none" text-rendering="optimizeLegibility" x1="90" x2="90" y1="122" y2="148"/>
<line clip-path="url(#clipPath14)" fill="none" text-rendering="optimizeLegibility" x1="90" x2="230" y1="148" y2="148"/>
<line clip-path="url(#clipPath14)" fill="none" text-rendering="optimizeLegibility" x1="230" x2="230" y1="148" y2="122"/>
<text x="80" y="161" clip-path="url(#clipPath15)" text-rendering="optimizeLegibility" stroke="none" xml:space="preserve">T(Waiting,Streaming,stream)</text>
<text x="140" y="143" clip-path="url(#clipPath16)" text-rendering="optimizeLegibility" stroke="none" xml:space="preserve">stream</text>
<line clip-path="url(#clipPath17)" fill="none" text-rendering="optimizeLegibility" x1="235" x2="230" y1="137" y2="122"/>
<line clip-path="url(#clipPath17)" fill="none" text-rendering="optimizeLegibility" x1="230" x2="225" y1="122" y2="137"/>
<line clip-path="url(#clipPath14)" fill="none" text-rendering="optimizeLegibility" x1="230" x2="230" y1="78" y2="48"/>
<line clip-path="url(#clipPath14)" fill="none" text-rendering="optimizeLegibility" x1="230" x2="90" y1="48" y2="48"/>
<line clip-path="url(#clipPath14)" fill="none" text-rendering="optimizeLegibility" x1="90" x2="90" y1="48" y2="78"/>
<text x="90" y="41" clip-path="url(#clipPath18)" text-rendering="optimizeLegibility" stroke="none" xml:space="preserve">T(Streaming,Waiting,wait)</text>
<text x="150" y="63" clip-path="url(#clipPath19)" text-rendering="optimizeLegibility" stroke="none" xml:space="preserve">wait</text>
<line clip-path="url(#clipPath20)" fill="none" text-rendering="optimizeLegibility" x1="85" x2="90" y1="63" y2="78"/>
<line clip-path="url(#clipPath20)" fill="none" text-rendering="optimizeLegibility" x1="90" x2="95" y1="78" y2="63"/>
</g>
</g>
</svg>
